<?xml version="1.0" encoding="utf-8"?>
<!-- Generator: Adobe Illustrator 23.0.2, SVG Export Plug-In . SVG Version: 6.00 Build 0)  -->
<svg version="1.1" id="Layer_1" xmlns="http://www.w3.org/2000/svg" xmlns:xlink="http://www.w3.org/1999/xlink" x="0px" y="0px"
	 viewBox="0 0 800 600" style="enable-background:new 0 0 800 600;" xml:space="preserve">
<style type="text/css">
	.st0{fill:#FFFFFF;}
</style>
<path class="st0" d="M404.5,122.4c-23.1,0-41.7,20.3-41.7,45.2c0,16.8,5.2,22,32.8,70c4.1,7.1,13.6,7.1,17.7,0
	c27.6-48.1,32.8-53.3,32.8-70C446.2,142.7,427.6,122.4,404.5,122.4z M404.5,231.7c-27.7-48.1-31.3-51.2-31.3-64.1
	c0-18.8,14-33.9,31.3-33.9s31.3,15.2,31.3,33.9C435.7,180.5,432.5,183.1,404.5,231.7z M387.1,167.6c0-10.4,7.8-18.9,17.4-18.9
	s17.4,8.4,17.4,18.9s-7.8,18.9-17.4,18.9S387.1,178.1,387.1,167.6z"/>
<path class="st0" d="M311.5,288.8h-1v-13.4c0-2-0.5-3.5-1.3-4.5c-0.9-0.9-2.2-1.5-4.1-1.5c-2.2,0-3.9,0.9-5.3,2.9
	c-0.8,1.2-1.3,2.4-1.7,3.8v12.5h-1v-19.9h1v4.7c0.7-1.7,1.7-2.8,2.9-3.8c1.3-0.9,2.6-1.3,4.2-1.3c1.7,0,3,0.4,4.1,1.1
	c1,0.7,1.7,2,2,3.6c0.6-1.4,1.6-2.6,2.8-3.5c1.3-0.9,2.8-1.3,4.4-1.3c2.1,0,3.7,0.6,4.8,1.8c1,1.2,1.6,3.1,1.6,5.4v13h-1v-12.9
	c0-2.2-0.5-3.8-1.3-4.8c-0.9-1-2.3-1.6-4.1-1.5c-2.4,0-4.3,1-5.7,2.9c-0.8,1.1-1.3,2.1-1.3,3.1v13.4H311.5z"/>
<path class="st0" d="M329.5,278.5c0-1.9,0.4-3.6,1.1-5.1c0.7-1.5,1.7-2.7,3.1-3.5c1.3-0.9,2.8-1.3,4.5-1.3c1.7,0,3.1,0.4,4.5,1.3
	c1.3,0.8,2.4,2,3.1,3.5c0.7,1.5,1.1,3.2,1.1,5.1v0.9c0,1.9-0.4,3.6-1.1,5.1c-0.7,1.5-1.7,2.7-3.1,3.5c-1.3,0.9-2.8,1.3-4.5,1.3
	c-1.7,0-3.1-0.4-4.5-1.3c-1.3-0.9-2.4-2-3.1-3.5c-0.7-1.5-1.1-3.1-1.1-5V278.5z M330.5,279.2c0,1.7,0.3,3.1,0.9,4.6
	c0.6,1.3,1.6,2.4,2.8,3.2c1.2,0.8,2.5,1.2,4,1.2c2.3,0,4.1-0.9,5.5-2.5c1.4-1.7,2.1-3.9,2.1-6.6v-0.6c0-1.7-0.3-3.1-1-4.5
	c-0.6-1.4-1.6-2.4-2.8-3.2s-2.5-1.2-4-1.2c-2.3,0-4.1,0.9-5.5,2.6s-2.1,3.9-2.1,6.5L330.5,279.2L330.5,279.2z"/>
<path class="st0" d="M360.4,269.7l-1.3-0.1c-1.7,0-3.1,0.6-4.2,1.7c-1.1,1.1-1.9,2.6-2.2,4.6v13h-1v-19.9h1v4.2
	c0.6-1.4,1.3-2.5,2.4-3.3c1.1-0.8,2.4-1.2,4.1-1.2c0.6,0,1,0.1,1.4,0.2L360.4,269.7z"/>
<path class="st0" d="M371.1,289.1c-1.6,0-3.1-0.4-4.4-1.3c-1.3-0.9-2.4-2-3.1-3.5c-0.8-1.5-1.1-3.1-1.1-5v-0.8c0-1.8,0.4-3.5,1.1-5
	c0.7-1.5,1.7-2.8,3.1-3.6c1.3-0.9,2.7-1.3,4.2-1.3c2.2,0,4,0.8,5.4,2.4c1.4,1.6,2.1,3.6,2.1,6.2v1h-14.9v1.1c0,1.7,0.3,3.1,1,4.5
	c0.7,1.3,1.7,2.4,2.8,3.2c1.2,0.8,2.5,1.2,3.9,1.2c1.3,0,2.4-0.2,3.4-0.6c0.9-0.5,1.7-1.1,2.5-2l0.7,0.5
	C376.2,288.1,374,289.1,371.1,289.1z M370.7,269.6c-2,0-3.5,0.7-5,2.1c-1.3,1.4-2.1,3.3-2.4,5.5h13.8v-0.2c0-1.3-0.3-2.6-0.9-3.8
	c-0.6-1.2-1.3-2-2.4-2.7C373,269.9,371.9,269.6,370.7,269.6z"/>
<path class="st0" d="M394.1,263.6v5.3h4.5v1h-4.5V284c0,1.4,0.2,2.4,0.7,3.1c0.5,0.7,1.3,1,2.3,1c0.6,0,1.2-0.1,2-0.2l0.2,0.9
	c-0.4,0.2-1.1,0.2-2,0.2c-1.4,0-2.5-0.4-3.1-1.2c-0.6-0.8-0.9-2-0.9-3.8V270h-3.7v-1h3.7v-5.4H394.1z"/>
<path class="st0" d="M404.7,273.6c0.6-1.6,1.6-2.8,2.8-3.6c1.3-0.9,2.7-1.3,4.2-1.3c2.1,0,3.7,0.6,4.7,1.8s1.6,3,1.6,5.4v13h-1v-13
	c0-2.1-0.5-3.7-1.3-4.7c-0.9-1-2.2-1.5-4.1-1.5c-1.7,0-3.2,0.6-4.5,1.8c-1.3,1.2-2.1,2.8-2.5,4.7v12.7h-1v-28.2h1v12.8H404.7z"/>
<path class="st0" d="M437.1,288.8c-0.2-0.9-0.4-2-0.4-3.6c-0.8,1.3-1.9,2.3-3.2,3s-2.9,1-4.6,1c-1.8,0-3.3-0.5-4.4-1.5
	c-1.1-1-1.7-2.3-1.7-3.9c0-1.8,0.8-3.3,2.4-4.4c1.7-1.1,3.9-1.7,6.5-1.7h4.9v-2.9c0-1.7-0.6-3-1.6-3.9c-1-0.9-2.5-1.4-4.5-1.4
	c-1.8,0-3.3,0.5-4.6,1.4c-1.2,0.9-1.8,2-1.8,3.5h-1c0-1.7,0.7-3,2.1-4.1s3.1-1.7,5.2-1.7c2.1,0,3.9,0.6,5.1,1.6
	c1.3,1.1,1.9,2.6,2,4.6v9.5c0,2.2,0.2,3.7,0.6,4.4v0.2L437.1,288.8L437.1,288.8z M428.9,288.2c1.9,0,3.5-0.4,4.8-1.3s2.4-2,3-3.5
	v-4.7h-4.6c-2.8,0-5,0.6-6.5,1.7c-1.3,0.9-1.8,2-1.8,3.5c0,1.2,0.5,2.2,1.4,3.1C426.3,287.7,427.5,288.2,428.9,288.2z"/>
<path class="st0" d="M445.1,273.6c0.6-1.6,1.6-2.8,2.8-3.6c1.3-0.9,2.7-1.3,4.2-1.3c2.1,0,3.7,0.6,4.7,1.8s1.6,3,1.6,5.4v13h-1v-13
	c0-2.1-0.5-3.7-1.3-4.7c-0.9-1-2.2-1.5-4.1-1.5c-1.7,0-3.2,0.6-4.5,1.8c-1.3,1.2-2.1,2.8-2.5,4.7v12.7h-1V269h1v4.6H445.1z"/>
<path class="st0" d="M486,280.5h4.6v1H486v7.3h-1v-7.3h-13V281l12.7-18.9h1.2L486,280.5L486,280.5z M473.6,280.5H485v-17.2l-1.6,2.5
	L473.6,280.5z"/>
<path class="st0" d="M509.4,277.9c0,3.6-0.7,6.4-2.1,8.3c-1.4,2-3.4,2.9-5.9,2.9s-4.5-1-5.9-3c-1.4-2-2.1-4.8-2.1-8.3V273
	c0-3.5,0.7-6.3,2.1-8.3c1.4-2,3.4-3,5.9-3s4.5,1,5.9,3c1.4,2,2.1,4.8,2.1,8.4V277.9z M508.4,273c0-3.2-0.6-5.7-1.8-7.5
	s-2.9-2.8-5.2-2.8c-2.3,0-4,0.9-5.2,2.8s-1.8,4.4-1.8,7.6v4.8c0,3.2,0.6,5.7,1.9,7.5s3,2.8,5.2,2.8c2.2,0,3.9-0.9,5.2-2.8
	c1.2-1.8,1.8-4.4,1.8-7.7L508.4,273L508.4,273z"/>
<path class="st0" d="M256,372.9c-1.3-0.8-2.3-2.1-2.9-3.9c-0.6-1.7-1.1-3.6-1.3-5.4c-0.3-1.9-0.4-3.7-0.4-5.3v-3.7c0-0.7,0-2,0.1-4
	s0.1-4.3,0.3-6.8c0.1-2.6,0.2-5.4,0.4-8.3c0.1-3,0.2-5.7,0.4-8.4c0.1-2.6,0.2-4.9,0.3-6.8c0.1-2,0.1-3.3,0.1-3.9c0-0.9,0-2.4,0-4.6
	s0-4.5,0-6.9c0-2.5,0-4.8,0-6.9c0-2.2,0-3.7,0-4.6c0.9-0.7,1.7-1.1,2.3-1.3c0.6-0.2,1.1-0.3,1.6-0.1c0.5,0.1,0.7,0.6,0.7,1.5v71.9
	c0,0.4,0.1,0.9,0.4,1.5s0.6,1.1,1,1.5c0.4,0.4,0.9,0.7,1.5,0.8s1.1-0.1,1.7-0.7l10.7-9.1c0.3,1.4,0.3,2.8-0.1,4.3
	c-0.4,1.5-0.9,2.9-1.7,4.2c-0.8,1.3-1.8,2.5-3,3.6c-1.2,1.1-2.5,1.9-3.8,2.4c-1.4,0.6-2.8,0.8-4.2,0.8
	C258.7,374.3,257.3,373.8,256,372.9z"/>
<path class="st0" d="M280,369.9c-1.5-2.2-2.4-4.6-2.7-7.2c-0.3-2.7-0.3-5.4,0-8.4s0.8-5.9,1.4-8.9c0.7-3,1.2-5.8,1.7-8.7
	c0.5-2.8,0.7-5.4,0.8-7.8c0.1-2.5-0.4-4.6-1.2-6.3c-0.5-0.9-1.1-1.4-1.9-1.4c-0.8,0-1.7,0.1-2.6,0.4c-0.9,0.2-1.8,0.3-2.8,0.2
	c-0.9-0.1-1.7-0.6-2.4-1.7c0.1-0.2,0.3-0.5,0.7-0.9c0.4-0.4,0.7-0.6,0.8-0.7c5.3-0.8,9.7-0.2,13.3,1.6c3.6,1.9,6.3,4.5,8.5,7.8
	c2.2,3.4,3.6,7.2,4.4,11.6c0.8,4.4,1.1,8.6,0.8,13c-0.2,4.3-0.9,8.2-2,12c-1.1,3.7-2.6,6.5-4.3,8.5c-1.7,2-3.7,2.9-5.8,2.7
	C284.6,375.3,282.3,373.4,280,369.9z M284.5,366.8c0.1,0.2,0.2,0.4,0.5,0.7c0.3,0.3,0.6,0.6,0.9,1c0.3,0.4,0.6,0.7,0.9,0.9
	c0.3,0.3,0.5,0.4,0.6,0.5c2.2-1.2,3.8-2.9,4.9-5.1s1.7-4.5,1.9-7s0.1-5.3-0.4-8.1c-0.4-2.9-1.1-5.5-1.9-8.2
	c-0.8-2.7-1.8-5.1-2.9-7.3c-1.1-2.3-2.2-4.1-3.2-5.4c-0.1,0.8-0.2,2-0.4,3.6c-0.2,1.6-0.4,3.4-0.5,5.3c-0.2,2-0.4,4.2-0.6,6.3
	c-0.2,2.3-0.5,4.4-0.7,6.3s-0.4,3.9-0.6,5.4c-0.2,1.6-0.3,2.8-0.4,3.6c-0.1,0.6,0,1.3,0,2c0.1,0.7,0.2,1.5,0.4,2.2
	c0.2,0.7,0.4,1.4,0.6,2C284.2,366,284.4,366.5,284.5,366.8z"/>
<path class="st0" d="M309.1,371.3c-2.2-1.7-3.8-3.7-4.8-5.9s-1.5-4.9-1.6-7.5c-0.1-2.8,0.2-5.5,0.9-8.4c0.7-2.9,1.6-5.6,2.7-8.4
	c1.1-2.7,2.4-5.3,3.8-7.5c1.4-2.3,2.8-4.3,4.2-5.9c1.4-1.6,2.8-2.8,4-3.5s2.3-0.7,3-0.1c0.1,0.7,0.3,1.9,0.7,3.6
	c0.3,1.7,0.7,3.6,1,5.5c0.3,2,0.6,3.9,0.9,5.5c0.3,1.7,0.5,3,0.6,3.6c0.1,0.8,0.1,1.6,0.1,2.4c-0.1,0.9-0.2,1.6-0.5,2.3
	c-0.3,0.7-0.8,1.2-1.5,1.5s-1.6,0.3-2.7,0c-0.1-0.4-0.2-1.1-0.5-2.1c-0.3-1-0.6-2.1-0.9-3.2c-0.3-1.2-0.7-2.3-1-3.3
	s-0.5-1.8-0.7-2.2l-1.5-1.5c-1.8,1.2-3.4,3-4.6,5.3c-1.2,2.3-2.1,4.8-2.6,7.4c-0.5,2.7-0.7,5.3-0.4,8c0.3,2.7,0.9,5.1,2,7
	c1.1,2,2.6,3.6,4.6,4.6c2,1,4.5,1.2,7.4,0.5c3-0.7,6.4-2.4,10.4-5.2c4-2.8,8.5-6.8,13.7-12.4v3.1c0,0.2-0.4,0.7-1.1,1.6
	c-0.7,0.9-1.6,1.9-2.6,3.1c-1,1.2-2,2.3-3.1,3.4c-1,1.1-1.9,2-2.6,2.7c-2,1.8-4,3.5-6.2,5.1c-2.2,1.5-4.5,2.7-6.8,3.5
	s-4.8,1-7.1,0.8C313.8,374.2,311.5,373.2,309.1,371.3z"/>
<path class="st0" d="M351,372.9c-1.2-2.5-1.8-5-1.9-7.5c-0.1-2.5,0-5.2,0.4-7.7c0.1-0.8,0.2-2.1,0.4-3.7c0.2-1.7,0.5-3.5,0.8-5.4
	c0.3-2,0.6-4.1,1-6.3c0.4-2.3,0.7-4.4,1-6.3s0.6-3.8,0.8-5.3s0.5-2.7,0.6-3.5c0.5-2.5,1-4.6,1.6-6.3c0.6-1.7,1.3-3.1,2.3-4
	c1-0.9,2.3-1.5,3.8-1.5c1.6-0.1,3.6,0.3,6,1.2c0.3,0.1,0.6,0.3,1,0.7c0.4,0.4,0.6,0.7,0.6,0.8c0.1,0.8,0.3,2,0.7,3.6
	c0.3,1.6,0.7,3.4,1.1,5.4c0.4,2,0.8,4.2,1.3,6.3c0.4,2.2,0.9,4.4,1.3,6.3s0.8,3.9,1.1,5.4c0.3,1.6,0.6,2.8,0.8,3.6
	c0.9,4.2,2,7,3.3,8.7c1.3,1.6,2.7,2.5,4.2,2.5c1.5,0.1,3-0.4,4.6-1.5c1.6-1,3.1-2.1,4.7-3.3c1.5-1.2,3-2.1,4.4-3
	c1.4-0.8,2.5-1,3.6-0.4c0,1.1-0.3,2.2-0.8,3.3c-0.5,1.1-1.2,2.1-1.9,3c-0.7,0.9-1.6,1.8-2.4,2.5c-0.9,0.8-1.7,1.4-2.5,2
	c-3.3,2.2-6,3.4-8.2,3.5c-2.2,0.1-4.1-0.4-5.5-1.5s-2.8-2.7-3.7-4.6c-0.9-2-1.8-3.9-2.5-5.9c-0.7-2-1.5-3.8-2.1-5.3
	c-0.7-1.6-1.5-2.6-2.4-3c-0.2,0.8-0.5,2.1-1.1,4c-0.6,1.9-1.2,3.9-1.8,5.9c-0.7,2.1-1.3,4.2-1.9,5.9c-0.6,1.9-1,3.2-1.2,4
	c-0.1,0.3-0.4,0.9-0.8,1.7s-0.9,1.7-1.5,2.7s-1.3,1.9-2,2.8c-0.7,0.9-1.5,1.6-2.3,2.1c-0.8,0.5-1.5,0.7-2.3,0.5
	C352.3,374.9,351.6,374.2,351,372.9z M355.6,347c-0.1,0.7-0.2,2-0.2,3.9s0,3.9,0,5.9c0,2.1,0,4.2,0,5.9c0,1.9,0.1,3.2,0.2,4
	c2.1-3.1,3.9-6.7,5.5-10.9c1.7-4.2,2.9-8.4,3.8-12.9c0.9-4.5,1.2-8.8,1-13.2c-0.2-4.4-1.1-8.3-2.7-12c-1,1.8-2,4.2-2.8,6.8
	c-0.9,2.8-1.7,5.5-2.3,8.4c-0.7,2.9-1.2,5.5-1.6,8C356,343.7,355.8,345.6,355.6,347z"/>
<path class="st0" d="M417.1,368.3c-1.3-2.2-2.3-4.7-3-7.3c-0.7-2.8-1.2-5.5-1.5-8.4s-0.4-5.7-0.4-8.5c0-2.8,0.1-5.4,0.2-7.7
	c-0.8-0.2-1.8-0.2-2.8,0.2c-1.1,0.4-2.2,0.8-3.4,1.4c-1.2,0.6-2.4,1.2-3.6,1.8c-1.2,0.7-2.4,1.1-3.5,1.4c-1.1,0.3-2,0.4-2.9,0.2
	c-0.9-0.2-1.6-0.8-2.1-1.9c-0.5-1-0.5-1.8,0.1-2.4c0.6-0.6,1.5-1.1,2.8-1.4c1.2-0.3,2.6-0.6,4.2-0.7s3.1-0.3,4.5-0.6
	c1.4-0.2,2.6-0.5,3.6-0.9s1.5-1,1.6-1.7l3.1-33.6c0.1-0.5,0.3-0.9,0.8-1.2c0.5-0.3,1-0.4,1.6-0.4s1.1,0.1,1.5,0.4
	c0.4,0.3,0.7,0.7,0.7,1.3v29c0.8,0.2,1.6,0.2,2.4,0c0.8-0.2,1.5-0.5,2.3-0.8c0.8-0.3,1.5-0.5,2.3-0.7c0.7-0.2,1.5-0.2,2.4,0
	c0.4,0.7,0.3,1.3-0.2,1.8c-0.5,0.6-0.9,1-1.4,1.3l-1.6,1c-0.7,0.4-1.5,0.9-2.3,1.4c-0.8,0.5-1.6,1-2.3,1.4c-0.7,0.4-1.3,0.7-1.6,0.8
	c-0.1,0.8-0.1,2.3-0.1,4.3c0,2,0,4.2,0,6.4s0,4.5,0,6.4s0.1,3.5,0.1,4.3c0.2,2.8,0.8,5.3,1.6,7.5c0.8,2.3,2,4.1,3.4,5.3
	c1.4,1.3,3.1,2,5.1,2s4.3-0.9,6.9-2.8c0.4,1.4,0.4,2.6-0.1,3.6c-0.5,1.1-1.2,1.9-2.3,2.5c-1.1,0.6-2.3,1-3.8,1.2
	c-1.5,0.2-3,0.1-4.5-0.3c-1.5-0.4-3-1-4.4-1.9C419.2,371,418,369.9,417.1,368.3z"/>
<path class="st0" d="M431.1,304.1c0-1.7,0.7-2.8,2-3.3c1.4-0.5,2.8-0.4,4.2,0.2v4.7c-0.2,0.1-0.5,0.1-0.9,0.1c-0.4,0-0.9,0-1.4,0
	c-0.5,0-1,0-1.4,0s-0.8-0.1-0.9-0.1c-0.2-0.1-0.5-0.3-0.9-0.7C431.2,304.6,431.1,304.3,431.1,304.1z M434.2,369.9
	c-0.1-0.2-0.3-0.7-0.4-1.4c-0.2-0.7-0.4-1.4-0.5-2.3c-0.2-0.8-0.3-1.6-0.4-2.4c-0.1-0.8-0.2-1.3-0.2-1.7v-42.8c0-0.6,0.3-1,0.8-1.2
	c0.5-0.2,1.1-0.4,1.8-0.4c0.7,0,1.3,0,1.9,0c0.6,0.1,0.9,0.1,0.9,0.1v47.5c0,1,0.3,1.8,1,2.5c0.7,0.7,1.4,1.2,2.3,1.6
	c0.9,0.4,1.8,0.6,2.8,0.7c0.9,0.1,1.7,0,2.4-0.1c0.8,1.2,0.8,2.2,0,3c-0.8,0.8-2.1,1.2-3.6,1.2c-1.6,0.1-3.2-0.2-4.9-0.9
	C436.2,372.5,434.9,371.4,434.2,369.9z"/>
<path class="st0" d="M457.6,369.9c-1.5-2.2-2.4-4.6-2.7-7.2c-0.3-2.7-0.3-5.4,0-8.4s0.8-5.9,1.4-8.9c0.7-3,1.2-5.8,1.7-8.7
	c0.5-2.8,0.7-5.4,0.8-7.8c0.1-2.5-0.4-4.6-1.2-6.3c-0.5-0.9-1.1-1.4-1.9-1.4c-0.8,0-1.7,0.1-2.6,0.4c-0.9,0.2-1.8,0.3-2.8,0.2
	c-0.9-0.1-1.7-0.6-2.4-1.7c0.1-0.2,0.3-0.5,0.7-0.9c0.4-0.4,0.7-0.6,0.8-0.7c5.3-0.8,9.7-0.2,13.3,1.6c3.6,1.9,6.3,4.5,8.5,7.8
	c2.1,3.4,3.6,7.2,4.4,11.6c0.8,4.4,1.1,8.6,0.8,13c-0.2,4.3-0.9,8.2-2,12c-1.1,3.7-2.6,6.5-4.3,8.5c-1.7,2-3.7,2.9-5.8,2.7
	C462.2,375.3,460,373.4,457.6,369.9z M462.2,366.8c0.1,0.2,0.2,0.4,0.5,0.7c0.3,0.3,0.6,0.6,0.9,1c0.3,0.4,0.6,0.7,0.9,0.9
	c0.3,0.3,0.5,0.4,0.6,0.5c2.2-1.2,3.8-2.9,4.9-5.1c1.1-2.1,1.7-4.5,1.9-7c0.2-2.6,0.1-5.3-0.4-8.1c-0.4-2.9-1.1-5.5-1.9-8.2
	s-1.8-5.1-2.9-7.3c-1.1-2.3-2.2-4.1-3.2-5.4c-0.1,0.8-0.2,2-0.4,3.6c-0.2,1.6-0.4,3.4-0.5,5.3c-0.2,2-0.4,4.2-0.6,6.3
	c-0.2,2.3-0.5,4.4-0.7,6.3c-0.2,2-0.4,3.9-0.6,5.4c-0.2,1.6-0.3,2.8-0.4,3.6c-0.1,0.6,0,1.3,0,2c0.1,0.7,0.2,1.5,0.4,2.2
	c0.2,0.7,0.4,1.4,0.6,2C461.8,366,462,366.5,462.2,366.8z"/>
<path class="st0" d="M485.2,372.9c0.1-0.8,0.1-2.1,0.1-4v-12c0-1.9,0-3.2-0.1-4c-0.1-0.4-0.2-1.1-0.3-2.3c-0.1-1.2-0.3-2.6-0.5-4.2
	c-0.2-1.6-0.4-3.3-0.7-5.1c-0.2-1.8-0.5-3.5-0.7-5.1s-0.4-3-0.6-4.2c-0.1-1.2-0.3-2-0.3-2.4c-0.1-0.8-0.2-1.7-0.1-2.6
	c0-0.9,0.2-1.7,0.5-2.3c0.3-0.7,0.8-1.1,1.4-1.4c0.7-0.3,1.6-0.2,2.8,0.2c0.1,1.2,0.2,2.7,0.3,4.4c0.1,1.7,0.3,3.5,0.6,5.3
	c0.2,1.8,0.5,3.6,0.9,5.3c0.4,1.8,0.8,3.4,1.3,4.9c0.8-2.2,1.5-4.1,2.3-5.7c0.7-1.7,1.6-3.2,2.5-4.7c0.9-1.4,2-2.8,3.2-4
	c1.2-1.3,2.6-2.6,4.3-4c2.1-1.7,3.8-2.4,5.2-2.1s2.5,1.3,3.5,3c0.9,1.7,1.7,3.9,2.3,6.4c0.6,2.7,1.1,5.4,1.6,8.4
	c0.5,3,1,5.8,1.5,8.7c0.5,2.9,1.1,5.3,1.9,7.4c0.8,2.1,1.7,3.6,2.9,4.6s2.6,1,4.4,0.1c0.5,1.6,0.6,2.8,0.2,3.5c-0.4,0.7-1,1.2-2,1.2
	c-0.9,0.1-2-0.1-3.2-0.7c-1.2-0.6-2.5-1.3-3.7-2.3c-1.2-1-2.3-2.1-3.2-3.5c-0.9-1.4-1.6-2.8-2-4.4c-0.2-1.1-0.4-2.8-0.6-5.2
	c-0.2-2.4-0.4-5-0.8-7.7s-0.9-5.4-1.6-8.1c-0.7-2.7-1.8-4.8-3.2-6.3l-6.1,5.9c-0.2,0.2-0.6,1.3-1.3,3.2c-0.7,1.9-1.4,4.1-2.3,6.4
	c-0.8,2.5-1.6,5-2.4,7.4c-0.8,2.5-1.3,4.6-1.7,6c-0.1,0.5-0.3,1.5-0.4,3c-0.2,1.5-0.4,3-0.5,4.7c-0.2,1.7-0.3,3.2-0.4,4.7
	c-0.1,1.5-0.1,2.5-0.1,3.1c-0.5,1.1-1.3,1.6-2.3,1.6C486.5,374.5,485.7,374,485.2,372.9z"/>
<path class="st0" d="M530.6,372.9c-1.4-1.1-2.5-2.6-3.2-4.5c-0.7-1.9-1-3.7-1.1-5.3c0-1.7,0.2-3,0.7-3.9c0.5-0.9,1.1-0.9,2,0
	c-0.1,3.2,0.5,5.5,1.8,7.2c1.3,1.7,2.9,2.7,4.8,3.1s3.9,0.3,5.9-0.4c2.1-0.7,3.9-1.7,5.3-3.1c1.5-1.4,2.5-3.1,3.1-5.1
	c0.6-2,0.3-4.2-0.9-6.4c-1.5-1.7-3.3-3.4-5.2-5c-1.9-1.6-3.9-3.2-5.7-4.8c-2-1.6-3.9-3.2-5.6-4.9c-1.8-1.7-3.5-3.5-4.9-5.3
	c-0.1-0.1-0.2-0.4-0.2-0.8s0.1-0.6,0.2-0.8c0.4-0.5,1-1.4,1.8-2.5c0.8-1.1,1.7-2.4,2.7-3.8s2.1-2.9,3.2-4.5c1.1-1.6,2.2-3.1,3.2-4.5
	c1-1.4,1.9-2.7,2.7-3.8c0.8-1.1,1.4-2,1.8-2.5c0.8-1.1,1.7-1.7,2.5-1.9c0.9-0.2,2.1-0.1,3.7,0.4c-0.1,0.2-0.3,0.8-0.7,1.6
	c-0.4,0.8-0.7,1.3-0.9,1.6c-0.5,0.7-1.4,1.9-2.7,3.7c-1.3,1.7-2.7,3.6-4.2,5.5c-1.5,2-2.9,3.9-4.2,5.5c-1.3,1.7-2.2,3-2.8,3.6
	c-0.5,0.7-0.3,1.5,0.5,2.5c0.8,0.9,2,2,3.6,3.2c1.5,1.2,3.3,2.5,5.2,4c2,1.5,3.8,3,5.5,4.7c1.7,1.7,3.2,3.4,4.4,5.3s1.9,3.9,2,6
	c0.1,2.2-0.5,4.4-1.9,6.7c-1.3,2.4-3.7,4.9-7.1,7.5c-1.1,0.8-2.2,1.5-3.5,2.1c-1.3,0.6-2.6,1-4,1.2c-1.4,0.2-2.7,0.2-4.1,0
	C533,374.4,531.8,373.8,530.6,372.9z"/>
</svg>
