<?xml version="1.0" encoding="utf-8"?>
<!-- Generator: Adobe Illustrator 23.0.2, SVG Export Plug-In . SVG Version: 6.00 Build 0)  -->
<svg version="1.1" id="Layer_1" xmlns="http://www.w3.org/2000/svg" xmlns:xlink="http://www.w3.org/1999/xlink" x="0px" y="0px"
	 viewBox="0 0 800 600" style="enable-background:new 0 0 800 600;" xml:space="preserve">
<style type="text/css">
	.st0{fill:#FFFFFF;}
	.st1{fill:none;stroke:#FFFFFF;stroke-width:5;stroke-miterlimit:10;}
	.st2{fill:none;stroke:#FFFFFF;stroke-miterlimit:10;}
</style>
<g>
	<path class="st0" d="M-446.7,235.5c0-1.8,0.4-3.4,1.1-4.9c0.7-1.4,1.7-2.6,3-3.4c1.3-0.8,2.8-1.2,4.4-1.2s3.1,0.4,4.4,1.2
		s2.3,1.9,3,3.3c0.7,1.4,1.1,3.1,1.1,4.9v0.8c0,1.8-0.4,3.5-1.1,4.9s-1.7,2.6-3,3.4c-1.3,0.8-2.8,1.2-4.4,1.2s-3.1-0.4-4.4-1.2
		s-2.3-1.9-3-3.3c-0.7-1.4-1.1-3-1.1-4.8V235.5z M-445.7,236.3c0,1.6,0.3,3,1,4.3c0.6,1.3,1.5,2.3,2.7,3.1c1.1,0.7,2.5,1.1,3.9,1.1
		c2.2,0,4-0.8,5.4-2.4c1.4-1.6,2.1-3.7,2.1-6.3v-0.5c0-1.6-0.3-3-1-4.3c-0.6-1.3-1.5-2.4-2.7-3.1c-1.1-0.7-2.5-1.1-3.9-1.1
		c-2.2,0-4,0.8-5.5,2.5c-1.4,1.6-2.1,3.7-2.1,6.2v0.5H-445.7z"/>
	<path class="st0" d="M-419.4,243.9l7-17.5h1l-7.6,19h-1l-7.6-19h1L-419.4,243.9z"/>
	<path class="st0" d="M-400.7,245.7c-1.6,0-3-0.4-4.3-1.2s-2.4-2-3.1-3.4s-1.1-3-1.1-4.8v-0.8c0-1.8,0.4-3.4,1.1-4.8
		c0.7-1.5,1.7-2.6,3-3.4c1.3-0.8,2.6-1.2,4.1-1.2c2.2,0,4,0.8,5.3,2.3c1.4,1.5,2.1,3.5,2.1,5.9v1h-14.6v1c0,1.5,0.3,3,1,4.3
		s1.6,2.3,2.8,3.1c1.2,0.7,2.4,1.1,3.8,1.1c1.3,0,2.4-0.2,3.3-0.6c0.9-0.4,1.7-1.1,2.4-2l0.7,0.5
		C-395.7,244.7-397.8,245.7-400.7,245.7z M-401.1,227c-1.9,0-3.5,0.7-4.8,2.1c-1.3,1.4-2.1,3.1-2.3,5.2h13.6v-0.2
		c0-1.3-0.3-2.5-0.8-3.6s-1.3-2-2.3-2.6C-398.8,227.3-399.9,227-401.1,227z"/>
	<path class="st0" d="M-380.5,227.1l-1.3-0.1c-1.7,0-3.1,0.5-4.2,1.6c-1.1,1-1.9,2.5-2.2,4.4v12.4h-1v-19h1v3.9
		c0.5-1.3,1.3-2.4,2.4-3.1c1.1-0.8,2.4-1.2,4-1.2c0.6,0,1,0.1,1.4,0.2L-380.5,227.1z"/>
	<path class="st0" d="M-352.5,245.4h-15.7v-0.9l9-10c1.5-1.7,2.6-3.2,3.3-4.5c0.7-1.3,1.1-2.5,1.1-3.6c0-1.9-0.6-3.3-1.7-4.4
		c-1.1-1-2.7-1.6-4.7-1.6c-1.2,0-2.3,0.3-3.4,0.9c-1,0.6-1.8,1.4-2.4,2.4s-0.9,2.1-0.9,3.4h-1c0-1.4,0.3-2.6,1-3.8
		c0.6-1.2,1.6-2.1,2.7-2.8c1.2-0.7,2.4-1,3.9-1c2.3,0,4.2,0.6,5.5,1.8s1.9,2.9,1.9,5c0,2-1.1,4.4-3.4,7.1l-1.6,1.9l-7.9,9h14.4
		L-352.5,245.4L-352.5,245.4z"/>
	<path class="st0" d="M-332.8,235c0,3.4-0.7,6.1-2.1,7.9s-3.3,2.8-5.8,2.8s-4.4-0.9-5.8-2.8c-1.4-1.9-2.1-4.6-2.1-8v-4.6
		c0-3.4,0.7-6,2.1-7.9s3.3-2.8,5.8-2.8s4.4,0.9,5.8,2.8c1.4,1.9,2.1,4.6,2.1,8V235z M-333.8,230.3c0-3.1-0.6-5.5-1.8-7.2
		c-1.2-1.7-2.9-2.6-5.1-2.6s-3.9,0.9-5.1,2.6c-1.2,1.7-1.8,4.2-1.8,7.3v4.6c0,3.1,0.6,5.5,1.8,7.2c1.2,1.7,2.9,2.6,5.1,2.6
		s3.9-0.9,5.1-2.6c1.2-1.7,1.8-4.2,1.8-7.3V230.3z"/>
	<path class="st0" d="M-312.5,235c0,3.4-0.7,6.1-2.1,7.9s-3.3,2.8-5.8,2.8s-4.4-0.9-5.8-2.8c-1.4-1.9-2.1-4.6-2.1-8v-4.6
		c0-3.4,0.7-6,2.1-7.9s3.3-2.8,5.8-2.8s4.4,0.9,5.8,2.8c1.4,1.9,2.1,4.6,2.1,8V235z M-313.5,230.3c0-3.1-0.6-5.5-1.8-7.2
		c-1.2-1.7-2.9-2.6-5.1-2.6s-3.9,0.9-5.1,2.6c-1.2,1.7-1.8,4.2-1.8,7.3v4.6c0,3.1,0.6,5.5,1.8,7.2c1.2,1.7,2.9,2.6,5.1,2.6
		s3.9-0.9,5.1-2.6c1.2-1.7,1.8-4.2,1.8-7.3V230.3z"/>
	<path class="st0" d="M-308,249.9l-0.7-0.6c1-1.2,1.5-2.5,1.6-3.8v-2.9h1v2.6C-306.1,247-306.7,248.6-308,249.9z"/>
	<path class="st0" d="M-285.4,235c0,3.4-0.7,6.1-2.1,7.9s-3.3,2.8-5.8,2.8s-4.4-0.9-5.8-2.8c-1.4-1.9-2.1-4.6-2.1-8v-4.6
		c0-3.4,0.7-6,2.1-7.9s3.3-2.8,5.8-2.8s4.4,0.9,5.8,2.8c1.4,1.9,2.1,4.6,2.1,8V235z M-286.4,230.3c0-3.1-0.6-5.5-1.8-7.2
		c-1.2-1.7-2.9-2.6-5.1-2.6s-3.9,0.9-5.1,2.6c-1.2,1.7-1.8,4.2-1.8,7.3v4.6c0,3.1,0.6,5.5,1.8,7.2c1.2,1.7,2.9,2.6,5.1,2.6
		s3.9-0.9,5.1-2.6c1.2-1.7,1.8-4.2,1.8-7.3V230.3z"/>
	<path class="st0" d="M-265.2,235c0,3.4-0.7,6.1-2.1,7.9s-3.3,2.8-5.8,2.8s-4.4-0.9-5.8-2.8c-1.4-1.9-2.1-4.6-2.1-8v-4.6
		c0-3.4,0.7-6,2.1-7.9s3.3-2.8,5.8-2.8s4.4,0.9,5.8,2.8c1.4,1.9,2.1,4.6,2.1,8V235z M-266.1,230.3c0-3.1-0.6-5.5-1.8-7.2
		c-1.2-1.7-2.9-2.6-5.1-2.6s-3.9,0.9-5.1,2.6c-1.2,1.7-1.8,4.2-1.8,7.3v4.6c0,3.1,0.6,5.5,1.8,7.2c1.2,1.7,2.9,2.6,5.1,2.6
		s3.9-0.9,5.1-2.6c1.2-1.7,1.8-4.2,1.8-7.3V230.3z"/>
	<path class="st0" d="M-244.9,235c0,3.4-0.7,6.1-2.1,7.9s-3.3,2.8-5.8,2.8s-4.4-0.9-5.8-2.8c-1.4-1.9-2.1-4.6-2.1-8v-4.6
		c0-3.4,0.7-6,2.1-7.9s3.3-2.8,5.8-2.8s4.4,0.9,5.8,2.8c1.4,1.9,2.1,4.6,2.1,8V235z M-245.9,230.3c0-3.1-0.6-5.5-1.8-7.2
		s-2.9-2.6-5.1-2.6s-3.9,0.9-5.1,2.6c-1.2,1.7-1.8,4.2-1.8,7.3v4.6c0,3.1,0.6,5.5,1.8,7.2c1.2,1.7,2.9,2.6,5.1,2.6s3.9-0.9,5.1-2.6
		c1.2-1.7,1.8-4.2,1.8-7.3L-245.9,230.3L-245.9,230.3z"/>
	<path class="st0" d="M-223.7,245.7c-1.6,0-3-0.4-4.3-1.2s-2.3-2-3.1-3.4c-0.7-1.4-1.1-3-1.1-4.8v-0.8c0-1.8,0.4-3.4,1.1-4.8
		c0.7-1.5,1.7-2.6,3-3.4c1.3-0.8,2.6-1.2,4.1-1.2c2.2,0,4,0.8,5.3,2.3c1.4,1.5,2.1,3.5,2.1,5.9v1h-14.6v1c0,1.5,0.3,3,1,4.3
		s1.6,2.3,2.8,3.1c1.2,0.7,2.4,1.1,3.8,1.1c1.3,0,2.4-0.2,3.3-0.6c0.9-0.4,1.7-1.1,2.4-2l0.7,0.5
		C-218.7,244.7-220.8,245.7-223.7,245.7z M-224,227c-1.9,0-3.5,0.7-4.8,2.1c-1.3,1.4-2.1,3.1-2.3,5.2h13.6v-0.2
		c0-1.3-0.3-2.5-0.8-3.6c-0.6-1.1-1.3-2-2.3-2.6C-221.7,227.3-222.8,227-224,227z"/>
	<path class="st0" d="M-197.1,236.1c0,3-0.7,5.3-2,7s-3.1,2.6-5.4,2.6c-1.5,0-2.8-0.3-4-0.9c-1.2-0.6-2.1-1.4-2.7-2.4v10.2h-1v-26.2
		h1v3.4c0.7-1.2,1.6-2.1,2.7-2.8c1.1-0.6,2.4-1,3.9-1c2.3,0,4.1,0.8,5.4,2.5c1.3,1.7,2,4.1,2,7.2L-197.1,236.1L-197.1,236.1z
		 M-198.1,235.7c0-2.7-0.6-4.9-1.7-6.4c-1.1-1.5-2.7-2.3-4.7-2.3c-1.6,0-3,0.4-4.2,1.2c-1.1,0.8-2,2-2.5,3.5v8.9
		c0.5,1.3,1.3,2.3,2.5,3c1.1,0.7,2.5,1.1,4.2,1.1c2,0,3.5-0.8,4.7-2.3C-198.7,240.9-198.1,238.7-198.1,235.7z"/>
	<path class="st0" d="M-192.1,220.5c0-0.3,0.1-0.5,0.3-0.7s0.4-0.3,0.7-0.3s0.5,0.1,0.7,0.3s0.3,0.4,0.3,0.7s-0.1,0.5-0.3,0.7
		s-0.4,0.3-0.7,0.3s-0.5-0.1-0.7-0.3S-192.1,220.8-192.1,220.5z M-190.6,245.4h-1v-19h1V245.4z"/>
	<path class="st0" d="M-177.6,244.8c1.8,0,3.2-0.5,4.4-1.4c1.1-0.9,1.8-2.2,1.9-3.8h1c-0.1,1.8-0.8,3.3-2.2,4.4
		c-1.4,1.1-3,1.7-5.1,1.7c-2.4,0-4.4-0.9-5.8-2.6c-1.4-1.7-2.2-4-2.2-7v-0.6c0-2.9,0.7-5.2,2.2-6.9c1.4-1.7,3.4-2.6,5.8-2.6
		c2.1,0,3.8,0.6,5.1,1.8s2.1,2.8,2.1,4.8h-1c-0.1-1.7-0.7-3.1-1.9-4.1c-1.1-1-2.6-1.6-4.5-1.6c-2.2,0-3.9,0.8-5.1,2.3
		c-1.2,1.5-1.9,3.6-1.9,6.4v0.6c0,2.7,0.6,4.7,1.9,6.2C-181.5,244-179.8,244.8-177.6,244.8z"/>
	<path class="st0" d="M-470,349.2c-1,1.9-1.8,2.9-2.4,2.9c-0.7,0-1.2-0.6-1.7-1.9s-0.8-3.1-1.1-5.5c-0.3-2.4-0.4-5-0.5-7.9
		s-0.1-5.9,0-9.1s0.2-6.3,0.3-9.2c0.1-3,0.3-5.7,0.6-8.1c0.2-2.5,0.5-4.4,0.8-5.8s0.6-2.2,0.9-2.3c0.3-0.1,0.6,0.7,0.9,2.3
		c1.9-1.4,4-2.7,6.2-4c2.2-1.2,4.5-2.3,6.8-3.1c2.4-0.8,4.7-1.4,7.2-1.6c2.4-0.2,4.8,0,7,0.6c0.2,0.8,0.3,1.6,0.1,2.6
		c-0.2,1-0.7,1.6-1.7,1.9c-1-0.2-2.2-0.3-3.8-0.3c-1.6,0-3.2,0.1-4.9,0.3c-1.7,0.2-3.5,0.6-5.2,1.1s-3.3,1.2-4.7,2s-2.5,1.9-3.4,3
		c-0.9,1.2-1.3,2.6-1.3,4.2L-470,349.2L-470,349.2z"/>
	<path class="st0" d="M-432.1,345.6c-1.5-2.1-2.4-4.5-2.7-7.2c-0.3-2.6-0.3-5.4,0-8.3s0.8-5.8,1.4-8.8c0.7-3,1.2-5.8,1.7-8.6
		c0.5-2.8,0.7-5.3,0.8-7.7c0.1-2.4-0.4-4.5-1.3-6.2c-0.5-0.9-1.1-1.4-1.9-1.3c-0.8,0-1.7,0.1-2.6,0.3c-0.9,0.2-1.9,0.3-2.8,0.2
		c-0.9-0.1-1.7-0.6-2.5-1.7c0.1-0.2,0.3-0.5,0.7-0.9c0.4-0.4,0.7-0.6,0.9-0.7c5.4-0.8,9.9-0.2,13.5,1.6c3.6,1.8,6.5,4.4,8.6,7.7
		c2.1,3.3,3.6,7.1,4.4,11.4s1.1,8.5,0.9,12.8c-0.2,4.2-0.9,8.2-2.1,11.8c-1.1,3.6-2.6,6.4-4.3,8.4c-1.7,2-3.7,2.8-5.9,2.6
		C-427.4,351-429.7,349.1-432.1,345.6z M-427.4,342.6c0.1,0.2,0.2,0.4,0.5,0.7c0.3,0.3,0.6,0.6,0.9,1c0.3,0.3,0.6,0.7,0.9,0.9
		c0.3,0.3,0.5,0.4,0.6,0.5c2.2-1.2,3.9-2.9,4.9-5s1.7-4.4,1.9-7c0.2-2.5,0.1-5.2-0.4-8c-0.4-2.8-1.1-5.5-1.9-8.1s-1.8-5-2.9-7.2
		s-2.2-4-3.2-5.4c-0.1,0.8-0.2,1.9-0.4,3.5c-0.2,1.6-0.4,3.3-0.5,5.3c-0.2,2-0.4,4.1-0.6,6.3c-0.2,2.2-0.5,4.3-0.7,6.3
		s-0.4,3.8-0.6,5.3c-0.2,1.6-0.3,2.7-0.4,3.5c-0.1,0.6,0,1.2,0,2c0.1,0.7,0.2,1.4,0.4,2.1s0.4,1.3,0.6,2
		C-427.8,341.8-427.6,342.3-427.4,342.6z"/>
	<path class="st0" d="M-406.5,348.7c-1.2-2.4-1.8-4.9-1.9-7.4s0-5,0.4-7.6c0.1-0.8,0.2-2,0.4-3.6c0.2-1.6,0.5-3.4,0.8-5.4
		s0.6-4.1,1-6.3c0.4-2.2,0.7-4.3,1-6.3s0.6-3.7,0.9-5.3c0.3-1.5,0.5-2.7,0.6-3.4c0.5-2.4,1-4.5,1.6-6.2s1.3-3,2.3-4
		c1-0.9,2.3-1.4,3.9-1.5s3.6,0.3,6.1,1.1c0.3,0.1,0.6,0.3,1,0.7c0.4,0.4,0.6,0.7,0.6,0.8c0.1,0.8,0.3,1.9,0.7,3.5
		c0.3,1.6,0.7,3.3,1.1,5.3s0.9,4.1,1.3,6.3c0.4,2.2,0.9,4.3,1.3,6.3s0.8,3.8,1.1,5.3c0.3,1.6,0.6,2.7,0.8,3.5c0.9,4.1,2,7,3.3,8.6
		s2.7,2.4,4.2,2.5s3-0.4,4.6-1.4s3.1-2.1,4.7-3.2s3-2.1,4.4-2.9s2.6-1,3.6-0.4c0,1.1-0.3,2.2-0.8,3.2s-1.2,2-1.9,2.9
		c-0.7,0.9-1.6,1.7-2.5,2.5s-1.7,1.4-2.5,1.9c-3.3,2.1-6.1,3.3-8.4,3.4c-2.2,0.1-4.1-0.4-5.7-1.5s-2.8-2.6-3.8-4.5s-1.8-3.9-2.6-5.8
		c-0.7-2-1.5-3.7-2.1-5.3c-0.7-1.5-1.5-2.5-2.5-2.9c-0.2,0.8-0.6,2.1-1.1,3.9c-0.6,1.9-1.2,3.8-1.8,5.9c-0.7,2.1-1.3,4.1-1.9,5.9
		c-0.6,1.9-1,3.2-1.3,3.9c-0.1,0.3-0.4,0.8-0.8,1.7c-0.4,0.8-0.9,1.7-1.5,2.7s-1.3,1.9-2,2.8s-1.5,1.6-2.3,2.1s-1.6,0.7-2.3,0.5
		C-405.2,350.6-405.9,349.9-406.5,348.7z M-401.8,323.1c-0.1,0.7-0.2,2-0.2,3.8c0,1.9,0,3.8,0,5.9s0,4.1,0,5.9
		c0,1.9,0.1,3.2,0.2,3.9c2.1-3.1,4-6.6,5.6-10.7c1.7-4.1,2.9-8.3,3.8-12.7c0.9-4.4,1.2-8.7,1-13s-1.1-8.2-2.7-11.8
		c-1,1.8-2,4.1-2.9,6.8c-0.9,2.7-1.7,5.5-2.3,8.3c-0.7,2.8-1.2,5.4-1.7,7.9C-401.3,319.8-401.6,321.7-401.8,323.1z"/>
	<path class="st0" d="M-361.8,345.6c-0.7-1.3-1.2-3.2-1.3-5.5s-0.1-5,0.1-7.9c0.3-2.9,0.7-5.9,1.4-9c0.7-3.1,1.6-6.1,2.6-9
		c1-2.8,2.2-5.4,3.6-7.8c1.3-2.3,2.8-4.2,4.4-5.5s3.3-1.9,5.2-1.9c1.8,0,3.8,1,5.7,2.8l3-24.2c0.1-0.2,0.3-0.5,0.7-0.9
		c0.4-0.4,0.7-0.6,0.9-0.6c0.2,0,0.5,0.1,0.9,0.2s0.7,0.2,1,0.4c0.3,0.1,0.6,0.3,0.9,0.5c0.2,0.2,0.4,0.3,0.4,0.4v42.3
		c0,3.2,0.6,5.9,1.7,8.3c1.1,2.3,2.6,4,4.5,5.1c1.8,1.1,4,1.5,6.4,1.1s4.9-1.7,7.6-3.9c0.8,0,1.2,0.4,1.2,1.1
		c-0.1,0.7-0.4,1.6-1,2.6s-1.5,2-2.7,3s-2.4,1.9-3.9,2.6c-1.4,0.7-2.9,1-4.5,1.1s-3.1-0.4-4.6-1.4c-1.2-0.8-2.3-1.7-3.2-2.7
		c-1-1-1.8-2.2-2.6-3.4c-0.7-1.2-1.4-2.5-2.1-3.7c-0.6-1.3-1.1-2.5-1.6-3.7c-0.2,0.5-0.6,1.3-1.2,2.3s-1.2,2.2-1.9,3.5
		s-1.5,2.7-2.2,4.1c-0.8,1.4-1.5,2.8-2.2,4.1s-1.4,2.5-2,3.5s-1,1.8-1.3,2.2c-0.8,1.5-1.9,2.6-3.1,3.4c-1.3,0.8-2.6,1.1-3.9,1.1
		s-2.6-0.4-3.9-1.1C-360,348.3-361,347.2-361.8,345.6z M-357.1,342.6c0.1,0.2,0.2,0.4,0.4,0.7c0.2,0.3,0.5,0.5,0.8,0.7
		s0.6,0.3,0.9,0.4s0.6,0,0.9-0.3c2.9-2.1,5.3-4.7,7.1-7.6c1.8-3,3.3-6.1,4.4-9.4s2-6.7,2.7-10.1s1.3-6.7,1.9-9.9
		c-3.2-0.4-6-0.2-8.3,0.7c-2.3,0.9-4.2,2.2-5.8,4c-1.6,1.8-2.8,3.9-3.7,6.4c-0.9,2.5-1.5,5.1-1.9,7.9s-0.5,5.6-0.4,8.4
		S-357.5,340.1-357.1,342.6z"/>
	<path class="st0" d="M-291.8,344.1c-1.3-2.1-2.3-4.6-3-7.3c-0.7-2.7-1.2-5.5-1.5-8.3s-0.4-5.6-0.4-8.4s0.1-5.3,0.2-7.6
		c-0.8-0.2-1.8-0.2-2.9,0.2c-1.1,0.3-2.2,0.8-3.4,1.3c-1.2,0.6-2.4,1.1-3.7,1.8c-1.3,0.6-2.4,1.1-3.5,1.4s-2.1,0.3-3,0.2
		c-0.9-0.2-1.6-0.8-2.1-1.8s-0.5-1.8,0.1-2.3c0.6-0.6,1.6-1,2.8-1.3c1.2-0.3,2.6-0.5,4.3-0.7c1.6-0.1,3.1-0.3,4.6-0.6
		c1.4-0.2,2.7-0.5,3.7-0.9s1.6-0.9,1.6-1.7l3.1-33.1c0.1-0.5,0.3-0.9,0.9-1.2c0.5-0.3,1-0.4,1.6-0.4s1.1,0.1,1.5,0.4
		s0.7,0.7,0.7,1.3v28.6c0.8,0.2,1.6,0.2,2.4,0s1.6-0.4,2.3-0.7c0.8-0.3,1.5-0.5,2.3-0.7c0.7-0.2,1.5-0.2,2.4,0
		c0.4,0.6,0.3,1.2-0.2,1.8c-0.5,0.6-1,1-1.4,1.3l-1.6,1c-0.7,0.4-1.5,0.9-2.3,1.3c-0.8,0.5-1.6,0.9-2.3,1.3
		c-0.7,0.4-1.3,0.7-1.6,0.8c-0.1,0.8-0.1,2.2-0.1,4.2s0,4.1,0,6.4s0,4.4,0,6.4s0.1,3.4,0.1,4.2c0.2,2.7,0.8,5.2,1.6,7.5
		c0.8,2.3,2,4,3.4,5.3s3.1,1.9,5.1,1.9s4.3-0.9,7-2.7c0.4,1.3,0.4,2.5-0.1,3.6c-0.5,1-1.3,1.9-2.3,2.5c-1.1,0.6-2.4,1-3.9,1.2
		s-3,0.1-4.5-0.3c-1.5-0.3-3-1-4.4-1.9C-289.8,346.8-290.9,345.6-291.8,344.1z"/>
	<path class="st0" d="M-268.7,349.2c-1,1.9-1.8,2.9-2.4,2.9c-0.7,0-1.2-0.6-1.7-1.9c-0.4-1.3-0.8-3.1-1.1-5.5
		c-0.3-2.4-0.4-5-0.5-7.9s-0.1-5.9,0-9.1s0.2-6.3,0.3-9.2c0.1-3,0.3-5.7,0.6-8.1c0.2-2.5,0.5-4.4,0.8-5.8s0.6-2.2,0.9-2.3
		c0.3-0.1,0.6,0.7,0.9,2.3c1.9-1.4,4-2.7,6.2-4c2.2-1.2,4.5-2.3,6.8-3.1c2.4-0.8,4.7-1.4,7.2-1.6c2.4-0.2,4.8,0,7,0.6
		c0.2,0.8,0.3,1.6,0.1,2.6s-0.7,1.6-1.7,1.9c-1-0.2-2.2-0.3-3.8-0.3s-3.2,0.1-4.9,0.3c-1.7,0.2-3.5,0.6-5.2,1.1s-3.3,1.2-4.7,2
		c-1.4,0.8-2.5,1.9-3.4,3c-0.9,1.2-1.3,2.6-1.3,4.2L-268.7,349.2L-268.7,349.2z"/>
	<path class="st0" d="M-239.8,280.7c0-1.7,0.7-2.8,2.1-3.3s2.8-0.4,4.2,0.2v4.6c-0.2,0.1-0.5,0.1-0.9,0.1s-0.9,0-1.4,0s-1,0-1.4,0
		s-0.8-0.1-0.9-0.1c-0.2-0.1-0.6-0.3-0.9-0.7C-239.6,281.2-239.8,280.9-239.8,280.7z M-236.7,345.6c-0.1-0.2-0.3-0.7-0.4-1.3
		c-0.2-0.7-0.4-1.4-0.5-2.2c-0.2-0.8-0.3-1.6-0.4-2.3c-0.1-0.8-0.2-1.3-0.2-1.7v-42.3c0-0.6,0.3-1,0.8-1.2s1.1-0.4,1.8-0.4
		s1.3,0,1.9,0c0.6,0.1,0.9,0.1,0.9,0.1v46.8c0,1,0.3,1.8,1,2.4s1.4,1.1,2.3,1.5s1.8,0.6,2.8,0.7s1.8,0,2.4-0.1
		c0.8,1.2,0.8,2.2,0,2.9c-0.9,0.7-2.1,1.1-3.7,1.2s-3.2-0.2-4.9-0.9C-234.7,348.2-235.9,347.2-236.7,345.6z"/>
	<path class="st0" d="M-214.9,393.9c-1.2-0.8-2.2-1.9-3-3.5s-1.4-3.3-1.9-5.1c-0.5-1.8-0.8-3.6-1-5.3c-0.2-1.7-0.3-3.1-0.4-4.2
		c-0.2-5-0.3-10.2-0.2-15.8c0.1-5.5,0.6-11,1.6-16.5s2.4-10.7,4.4-15.8c2-5.1,4.8-9.7,8.3-13.8c1.8-2.1,3.7-4.1,5.4-5.9
		c1.8-1.8,3.6-3.3,5.6-4.7c1.9-1.4,4-2.6,6.3-3.6c2.2-1,4.8-1.8,7.6-2.4c2.6-0.5,4.5-0.3,5.9,0.8c1.3,1,2.2,2.6,2.6,4.6
		c0.4,2.1,0.4,4.5,0,7.3s-1.1,5.7-2.1,8.7s-2.3,5.9-3.7,8.7c-1.5,2.8-3,5.3-4.7,7.5c-1.7,2.1-3.4,3.8-5.2,5s-3.5,1.6-5.2,1.2
		c-0.2-0.4,0-1.4,0.8-2.9s1.8-3.4,3.1-5.6s2.7-4.6,4.2-7.3c1.5-2.7,2.9-5.4,4.1-8.2c1.2-2.8,2.2-5.5,2.9-8.2s0.9-5,0.5-7.1
		c-0.2-0.9-0.7-1.5-1.6-1.7c-0.9-0.2-1.9-0.1-2.9,0.1s-2,0.5-3,0.9c-1,0.3-1.6,0.6-1.8,0.7c-4.5,1.9-8.5,4.7-11.8,8.3
		c-3.3,3.6-6.1,7.8-8.4,12.4c-2.3,4.7-4,9.6-5.3,14.9s-2.2,10.5-2.7,15.6s-0.7,10-0.6,14.7s0.5,8.7,1.2,12.1s1.5,6,2.5,7.7
		c1,1.8,2.1,2.4,3.4,1.8c0.1-0.1,0.4-0.3,0.8-0.7c0.4-0.4,0.6-0.7,0.8-0.9c0.8-2.4,1.5-5.1,2.1-8c0.5-2.9,0.9-5.9,1.2-9
		s0.4-6.3,0.5-9.5s0.1-6.3,0-9.3s-0.2-5.8-0.3-8.5s-0.3-5-0.4-7c-0.2-0.4-0.3-1.2-0.4-2.3c-0.1-1.1-0.1-2.3-0.2-3.6
		c0-1.3,0-2.5,0.1-3.8c0.1-1.2,0.3-2.2,0.6-2.8c0.3-0.6,0.7-0.9,1.2-0.7c0.5,0.2,1.1,1,1.9,2.5c0.1,0.8,0.3,2.1,0.4,3.9
		c0.1,1.9,0.3,3.8,0.5,6c0.2,2.1,0.3,4.1,0.4,6c0.1,1.9,0.2,3.2,0.2,3.9c0.1,0.8,0.1,1.9,0.1,3.3s0,2.9,0,4.6v10c0,1.5,0,2.8,0,4
		c0,1.1-0.1,1.9-0.1,2.2c0,0.5-0.1,1.5-0.4,3.1c-0.3,1.5-0.6,3.2-0.9,5s-0.6,3.5-1,5.1s-0.6,2.8-0.8,3.5c-0.4,1.2-0.9,2.5-1.5,3.7
		c-0.7,1.3-1.4,2.3-2.4,3.2c-0.9,0.9-2,1.4-3.1,1.6C-212.3,395.1-213.6,394.7-214.9,393.9z"/>
	<path class="st0" d="M-164.4,348.7c-1.4-1-2.5-2.5-3.2-4.4s-1-3.7-1.1-5.3c0-1.7,0.2-2.9,0.7-3.8s1.1-0.9,2,0
		c-0.1,3.1,0.5,5.5,1.8,7.1s2.9,2.6,4.8,3c1.9,0.4,3.9,0.3,6-0.3c2.1-0.6,3.9-1.6,5.5-3c1.5-1.4,2.6-3,3.1-5c0.6-2,0.3-4.1-0.9-6.3
		c-1.6-1.7-3.3-3.3-5.2-4.9s-3.9-3.2-5.9-4.7s-3.9-3.2-5.7-4.8c-1.9-1.7-3.5-3.4-4.9-5.3c-0.1-0.1-0.2-0.4-0.2-0.7
		c0-0.4,0.1-0.6,0.2-0.7c0.4-0.5,1-1.3,1.8-2.4s1.7-2.3,2.7-3.7c1-1.4,2.1-2.9,3.2-4.4c1.1-1.5,2.2-3,3.2-4.4s1.9-2.6,2.7-3.7
		s1.4-1.9,1.8-2.4c0.8-1,1.7-1.7,2.6-1.8c0.9-0.2,2.1-0.1,3.7,0.3c-0.1,0.2-0.3,0.7-0.7,1.5s-0.7,1.3-0.9,1.5
		c-0.5,0.7-1.4,1.9-2.7,3.6s-2.7,3.5-4.2,5.5c-1.5,1.9-2.9,3.8-4.2,5.5s-2.2,2.9-2.8,3.5c-0.5,0.7-0.3,1.5,0.5,2.4s2,2,3.6,3.1
		c1.6,1.2,3.3,2.4,5.3,3.9c2,1.4,3.8,2.9,5.6,4.6c1.8,1.6,3.3,3.4,4.5,5.2c1.2,1.9,1.9,3.8,2,6c0.1,2.1-0.5,4.3-1.9,6.6
		c-1.3,2.3-3.7,4.8-7.2,7.4c-1.1,0.8-2.3,1.5-3.5,2.1c-1.3,0.6-2.6,1-4,1.2s-2.7,0.2-4.1,0C-161.9,350.1-163.2,349.6-164.4,348.7z"
		/>
	<path class="st0" d="M-398.3,417.5l1.3,4.9l6.9-21.1h1.2l6.8,21.1l1.3-4.9l4.8-16.2h1.4l-6.8,22.7h-1.2l-5.8-17.1l-1.1-4.1
		l-1.2,4.1l-5.7,17.1h-1.2l-6.8-22.7h1.3L-398.3,417.5z"/>
	<path class="st0" d="M-370.7,412.3c0-2.2,0.4-4.1,1.3-5.9c0.9-1.7,2.1-3.1,3.6-4c1.6-1,3.3-1.5,5.3-1.5s3.7,0.5,5.3,1.4
		s2.8,2.3,3.7,4c0.9,1.7,1.3,3.7,1.3,5.8v1c0,2.2-0.4,4.1-1.3,5.9c-0.9,1.7-2.1,3.1-3.6,4c-1.6,1-3.3,1.5-5.3,1.5s-3.8-0.5-5.3-1.4
		c-1.6-1-2.8-2.3-3.7-4c-0.9-1.7-1.3-3.6-1.3-5.8V412.3z M-369.6,413.2c0,1.9,0.4,3.6,1.2,5.2c0.8,1.6,1.8,2.8,3.2,3.7
		c1.4,0.9,3,1.3,4.7,1.3c2.7,0,4.8-1,6.5-2.9s2.5-4.5,2.5-7.5v-0.7c0-1.9-0.4-3.6-1.2-5.2s-1.9-2.8-3.2-3.7
		c-1.4-0.9-2.9-1.3-4.7-1.3c-2.7,0-4.9,1-6.5,3c-1.7,2-2.5,4.5-2.5,7.5V413.2z"/>
	<path class="st0" d="M-334.2,402.2l-1.5-0.1c-2,0-3.7,0.6-5,1.9s-2.2,3-2.6,5.3v14.9h-1.2v-22.7h1.2v4.7c0.6-1.6,1.6-2.8,2.9-3.8
		c1.3-0.9,2.9-1.4,4.8-1.4c0.7,0,1.2,0.1,1.6,0.2L-334.2,402.2z"/>
	<path class="st0" d="M-328.3,424.1h-1.2v-32.3h1.2V424.1z"/>
	<path class="st0" d="M-321.6,412.5c0-3.6,0.8-6.5,2.4-8.5s3.7-3.1,6.5-3.1c1.8,0,3.3,0.4,4.7,1.2c1.4,0.8,2.4,1.9,3.3,3.4v-13.7
		h1.2v32.3h-1.2v-3.6c-0.8,1.3-1.9,2.3-3.3,3s-3,1.1-4.7,1.1c-2.7,0-4.9-1-6.4-3.1c-1.6-2.1-2.4-5-2.4-8.6v-0.4L-321.6,412.5
		L-321.6,412.5z M-320.4,412.9c0,3.2,0.7,5.8,2,7.6c1.3,1.9,3.2,2.8,5.6,2.8c1.9,0,3.6-0.4,5-1.3c1.4-0.8,2.4-2.1,3.1-3.7v-10.5
		c-1.3-3.8-4-5.7-8-5.7c-2.4,0-4.3,0.9-5.6,2.8C-319.8,406.6-320.4,409.3-320.4,412.9z"/>
	<path class="st0" d="M-292.1,417.5l1.3,4.9l6.9-21.1h1.2l6.8,21.1l1.3-4.9l4.8-16.2h1.4l-6.8,22.7h-1.2l-5.8-17.1l-1.1-4.1
		l-1.2,4.1l-5.7,17.1h-1.2l-6.8-22.7h1.3L-292.1,417.5z"/>
	<path class="st0" d="M-263,394.2c0-0.3,0.1-0.6,0.3-0.8c0.2-0.2,0.5-0.3,0.8-0.3s0.6,0.1,0.9,0.3c0.2,0.2,0.4,0.5,0.4,0.8
		s-0.1,0.6-0.4,0.8c-0.2,0.2-0.5,0.3-0.9,0.3c-0.3,0-0.6-0.1-0.8-0.3S-263,394.6-263,394.2z M-261.2,424.1h-1.2v-22.7h1.2V424.1z"/>
	<path class="st0" d="M-254.6,412.5c0-3.6,0.8-6.5,2.4-8.5s3.7-3.1,6.5-3.1c1.8,0,3.3,0.4,4.7,1.2c1.4,0.8,2.4,1.9,3.3,3.4v-13.7
		h1.2v32.3h-1.2v-3.6c-0.8,1.3-1.9,2.3-3.3,3s-3,1.1-4.7,1.1c-2.7,0-4.9-1-6.4-3.1c-1.6-2.1-2.4-5-2.4-8.6v-0.4L-254.6,412.5
		L-254.6,412.5z M-253.4,412.9c0,3.2,0.7,5.8,2,7.6s3.2,2.8,5.6,2.8c1.9,0,3.6-0.4,5-1.3c1.4-0.8,2.4-2.1,3.1-3.7v-10.5
		c-1.3-3.8-4-5.7-8-5.7c-2.4,0-4.3,0.9-5.6,2.8S-253.4,409.3-253.4,412.9z"/>
	<path class="st0" d="M-220.8,424.5c-1.9,0-3.6-0.5-5.2-1.5s-2.8-2.3-3.7-4.1s-1.3-3.6-1.3-5.7v-0.9c0-2.1,0.4-4,1.3-5.8
		s2.1-3.1,3.6-4.1s3.2-1.5,5-1.5c2.6,0,4.8,0.9,6.4,2.7c1.7,1.8,2.5,4.2,2.5,7.1v1.2h-17.6v1.2c0,1.8,0.4,3.6,1.2,5.1
		c0.8,1.6,1.9,2.8,3.3,3.7s2.9,1.3,4.6,1.3c1.6,0,2.9-0.3,4-0.8s2.1-1.3,2.9-2.3l0.8,0.6C-214.8,423.3-217.4,424.5-220.8,424.5z
		 M-221.3,402c-2.3,0-4.2,0.8-5.8,2.5c-1.6,1.6-2.5,3.7-2.8,6.3h16.3v-0.3c0-1.5-0.3-3-1-4.3s-1.6-2.4-2.8-3.1
		C-218.5,402.4-219.8,402-221.3,402z"/>
</g>
<line class="st1" x1="-562.2" y1="318.8" x2="-487" y2="318.8"/>
<line class="st1" x1="-117.5" y1="318.9" x2="-42.2" y2="318.9"/>
<g>
	<path class="st0" d="M336.2,188.1c0.6-1.4,1.4-2.5,2.6-3.3c1.2-0.8,2.4-1.2,3.8-1.2c1.9,0,3.3,0.6,4.3,1.7c0.9,1.1,1.4,2.7,1.4,5
		v11.7h-0.9v-11.7c0-1.9-0.4-3.3-1.2-4.3c-0.7-0.9-2-1.4-3.6-1.4c-1.6,0-2.9,0.6-4.1,1.7c-1.2,1.1-1.9,2.5-2.3,4.2v11.5h-0.9v-25.5
		h0.9L336.2,188.1L336.2,188.1z"/>
	<path class="st0" d="M360.3,202.2c-1.4,0-2.8-0.4-4-1.2c-1.2-0.7-2.1-1.8-2.8-3.2c-0.7-1.4-1-2.9-1-4.5v-0.7c0-1.7,0.3-3.1,1-4.5
		s1.6-2.5,2.7-3.2c1.2-0.7,2.4-1.2,3.8-1.2c2,0,3.6,0.7,4.9,2.1c1.2,1.4,1.9,3.3,1.9,5.6v0.9h-13.4v1c0,1.5,0.3,2.8,0.9,4.1
		c0.6,1.2,1.5,2.2,2.6,2.9c1.1,0.7,2.2,1.1,3.5,1.1s2.2-0.2,3.1-0.6c0.8-0.4,1.6-1,2.2-1.8l0.7,0.4
		C364.9,201.3,362.9,202.2,360.3,202.2z M360,184.5c-1.7,0-3.2,0.7-4.5,2c-1.2,1.3-1.9,3-2.1,5h12.5v-0.2c0-1.2-0.2-2.3-0.7-3.4
		s-1.2-1.8-2.1-2.4S361.1,184.5,360,184.5z"/>
	<path class="st0" d="M382.5,201.9c-0.2-0.7-0.3-1.8-0.3-3.3c-0.7,1.2-1.7,2.1-2.9,2.6c-1.2,0.6-2.6,0.9-4.1,0.9c-1.7,0-3-0.4-4-1.3
		c-1-0.9-1.5-2.1-1.5-3.6c0-1.7,0.7-3,2.2-4c1.5-1,3.5-1.5,6-1.5h4.4v-2.5c0-1.5-0.5-2.6-1.4-3.5c-0.9-0.8-2.3-1.2-4.1-1.2
		c-1.7,0-3,0.4-4.1,1.2c-1.1,0.8-1.7,1.9-1.7,3.1h-0.9c0-1.5,0.7-2.7,1.9-3.7s2.8-1.5,4.7-1.5c1.9,0,3.5,0.5,4.6,1.5
		c1.2,1,1.7,2.3,1.7,4.1v8.6c0,2,0.2,3.3,0.5,4v0.2h-1.2V201.9z M375.1,201.3c1.7,0,3.1-0.4,4.3-1.2c1.2-0.7,2.1-1.8,2.7-3.1v-4.2
		H378c-2.6,0-4.5,0.5-5.9,1.5c-1.1,0.8-1.7,1.8-1.7,3.1c0,1.1,0.4,2,1.3,2.8C372.7,201,373.8,201.3,375.1,201.3z"/>
	<path class="st0" d="M402.5,193.1c0,2.8-0.6,5-1.8,6.6c-1.2,1.7-2.8,2.5-4.9,2.5c-1.3,0-2.6-0.2-3.6-0.8c-1.1-0.6-1.9-1.3-2.5-2.3
		v9.7h-0.9v-24.8h0.9v3.2c0.6-1.2,1.5-2,2.5-2.6c1.1-0.6,2.2-0.9,3.6-0.9c2.1,0,3.7,0.8,5,2.4c1.2,1.6,1.8,3.9,1.8,6.8V193.1z
		 M401.6,192.8c0-2.6-0.5-4.5-1.6-6c-1.1-1.5-2.5-2.1-4.3-2.1c-1.5,0-2.8,0.4-3.8,1.2c-1.1,0.7-1.8,1.9-2.2,3.4v8.4
		c0.5,1.2,1.2,2.2,2.3,2.9s2.3,1,3.9,1c1.8,0,3.2-0.7,4.3-2.1C401.3,197.8,401.6,195.6,401.6,192.8z"/>
	<path class="st0" d="M418.5,197.5c0-2.1-1.8-3.6-5.5-4.5c-2.2-0.5-3.8-1.1-4.6-1.8c-0.9-0.7-1.3-1.7-1.3-3.1s0.6-2.4,1.7-3.2
		c1.1-0.8,2.6-1.2,4.3-1.2c1.9,0,3.5,0.5,4.6,1.4c1.2,0.9,1.7,2.1,1.7,3.7h-0.9c0-1.2-0.5-2.2-1.5-3c-1-0.8-2.3-1.2-4-1.2
		c-1.6,0-2.8,0.3-3.7,1c-0.9,0.7-1.4,1.6-1.4,2.6c0,0.8,0.2,1.4,0.5,1.9s0.9,0.9,1.7,1.2c0.7,0.3,1.9,0.7,3.4,1.1
		c1.5,0.3,2.6,0.7,3.5,1.2c0.8,0.5,1.5,1,1.9,1.7c0.4,0.7,0.6,1.4,0.6,2.3c0,1.4-0.6,2.6-1.7,3.4c-1.2,0.8-2.6,1.3-4.5,1.3
		c-2,0-3.6-0.5-4.9-1.4c-1.2-0.9-1.8-2.1-1.8-3.6h0.9c0.1,1.2,0.7,2.2,1.7,3c1,0.7,2.4,1.1,4.1,1.1c1.6,0,2.9-0.4,3.9-1.2
		C418,199.5,418.5,198.6,418.5,197.5z"/>
	<path class="st0" d="M431,192.6c0-1.7,0.3-3.2,1-4.6c0.7-1.4,1.6-2.4,2.8-3.2s2.6-1.2,4.1-1.2s2.8,0.3,4.1,1.1
		c1.2,0.7,2.1,1.8,2.8,3.1c0.7,1.3,1,2.9,1,4.5v0.8c0,1.7-0.3,3.2-1,4.6c-0.7,1.4-1.6,2.4-2.8,3.1s-2.6,1.2-4.1,1.2
		s-2.9-0.4-4.1-1.2c-1.2-0.7-2.1-1.8-2.8-3.1c-0.7-1.3-1-2.9-1-4.5V192.6z M431.9,193.3c0,1.5,0.3,2.9,0.9,4.1s1.4,2.2,2.5,2.9
		c1.1,0.7,2.2,1.1,3.6,1.1c2.1,0,3.7-0.7,5-2.3c1.3-1.6,1.9-3.5,1.9-6v-0.5c0-1.5-0.3-2.8-0.9-4.1c-0.6-1.2-1.4-2.2-2.5-2.9
		c-1.1-0.7-2.2-1.1-3.6-1.1c-2.1,0-3.7,0.7-5,2.3c-1.2,1.6-1.9,3.6-1.9,5.9L431.9,193.3L431.9,193.3z"/>
	<path class="st0" d="M452.4,201.9v-17h-3.1v-0.9h3.1v-2.6c0-1.7,0.4-3,1.2-3.9c0.8-0.9,2-1.4,3.5-1.4c0.8,0,1.5,0.1,2.1,0.2
		l-0.2,0.8c-0.6-0.2-1.2-0.2-2-0.2c-1.2,0-2.1,0.4-2.8,1.2c-0.7,0.7-1,1.8-1,3.3v2.6h4.7v0.9h-4.7v17L452.4,201.9L452.4,201.9z"/>
	<path class="st0" d="M232.4,277.4c-0.2-0.7-0.1-1.4,0.5-2.2c0.6-0.7,1.3-1.6,2.3-2.4c1-0.8,2.1-1.7,3.4-2.4
		c1.2-0.8,2.5-1.7,3.6-2.4s2.2-1.5,3.1-2.2c0.9-0.7,1.5-1.4,1.8-2c0.7-1.4,1.2-3,1.7-4.8s0.8-3.6,1-5.3c0.2-1.7,0.2-3.3,0-4.6
		c-0.2-1.4-0.6-2.3-1.3-2.8c-0.7-0.5-1.7-0.4-2.8,0.2c-1.2,0.7-2.7,2.1-4.5,4.3c-0.5,0.7-1.1,1.7-1.8,3.4c-0.7,1.7-1.4,3.4-2.2,5.4
		c-0.7,2-1.6,4-2.4,6c-0.8,2-1.7,3.6-2.4,5c-0.8,1.4-1.6,2.3-2.3,2.7s-1.4,0.1-1.9-1.1c0-0.3,0-0.9,0-1.7s0-1.7,0-2.5
		c0-0.8,0-1.7,0-2.5s0-1.3,0-1.7c-0.2-3.1-0.3-6.1-0.5-9.1s-0.4-6-0.6-8.8c-0.2-2.9-0.4-5.9-0.7-8.8s-0.5-6-0.7-9
		c-0.1-1.3-0.1-2.2,0.2-2.6c0.2-0.5,0.4-0.6,0.7-0.4c0.3,0.2,0.7,0.6,1.2,1.2c0.4,0.7,0.8,1.5,1.2,2.5c0.4,1,0.7,2,1,3.1
		c0.2,1.2,0.4,2.2,0.5,3.4c0,0.6,0,1.4,0.1,2.6c0.1,1.2,0.2,2.6,0.2,4.1c0.1,1.5,0.2,3.1,0.2,4.7c0.1,1.7,0.2,3.2,0.2,4.7
		s0.2,2.8,0.2,4.1c0.1,1.2,0.2,2.1,0.2,2.6c1-0.7,1.9-1.7,2.6-2.7c0.7-1.1,1.4-2.1,2.1-3.3s1.4-2.2,2.1-3.2c0.7-1.1,1.7-2,2.7-2.6
		c2.9-1.8,5.4-2.8,7.3-3s3.4,0.2,4.5,1.3c1.1,1.1,1.7,2.5,1.8,4.5c0.2,1.9,0,4.1-0.6,6.4c-0.6,2.4-1.4,4.8-2.6,7.4s-2.7,4.9-4.5,7.1
		c-1.7,2.2-3.8,4.1-6,5.8c-2.3,1.7-4.8,2.7-7.4,3.3l-0.6-0.6C232.6,277.6,232.4,277.4,232.4,277.4z"/>
	<path class="st0" d="M259.6,274.4c-0.1-0.2-0.2-0.5-0.3-0.9s-0.2-0.9-0.4-1.4c-0.1-0.5-0.2-1-0.3-1.5c-0.1-0.5-0.2-0.7-0.2-1v-26.2
		c0-0.4,0.2-0.7,0.5-0.9s0.7-0.3,1.1-0.3c0.4-0.1,0.8-0.1,1.2,0c0.4,0.1,0.7,0.1,0.8,0.2c-0.1,0.6-0.1,1.5-0.1,2.7
		c0,1.2,0,2.6,0,4.2c0,1.6,0,3.2,0,5c0,1.7,0,3.4,0,5v4.2c0,1.2,0,2.1,0.1,2.7c0.1,2.6,0.4,4.4,1.1,5.4c0.6,1,1.4,1.5,2.2,1.4
		s1.8-0.6,2.8-1.5c1-0.9,1.9-2.1,2.7-3.4c0.8-1.3,1.6-2.6,2.1-4.1c0.6-1.4,0.8-2.6,0.8-3.8v-17.9h4.8c-0.1,1.1-0.2,2.4-0.3,4.1
		c-0.2,1.7-0.2,3.6-0.2,5.5c0,2,0,4,0.1,6c0.1,2.1,0.3,4,0.7,5.8c0.3,1.8,0.8,3.4,1.5,4.7c0.7,1.3,1.5,2.3,2.5,2.9s2.3,0.7,3.7,0.2
		c1.5-0.4,3.2-1.4,5.2-3.1c0.4,1.2,0.2,2.3-0.5,3.5c-0.7,1.1-1.7,2.1-2.9,2.9c-1.2,0.8-2.5,1.4-3.8,1.8c-1.4,0.4-2.6,0.5-3.5,0.2
		c-0.2-0.1-0.3-0.2-0.7-0.6c-0.3-0.3-0.5-0.6-0.6-0.7c-0.2-0.3-0.5-0.9-1-1.8s-0.9-1.8-1.4-2.8c-0.5-1-1-2-1.4-2.9
		c-0.4-0.9-0.7-1.6-0.9-1.9c-0.2,0.5-0.7,1.2-1.4,2.3c-0.7,1-1.4,2.1-2.3,3.3c-0.9,1.2-1.8,2.2-2.9,3.3s-2.1,1.7-3.1,2.2
		c-1.1,0.4-2.1,0.5-3.1,0.2C261.4,276.9,260.4,275.9,259.6,274.4z"/>
	<path class="st0" d="M289.3,274.4c-0.6-1.1-0.9-2.5-1-4.4c-0.1-1.9-0.1-3.9,0.1-6.2c0.2-2.3,0.6-4.6,1.1-7.1c0.5-2.5,1.2-4.8,2-7
		c0.8-2.2,1.7-4.3,2.7-6.1c1-1.8,2.1-3.3,3.4-4.3s2.6-1.6,4-1.5c1.4,0,2.9,0.7,4.4,2.2l2.3-19.2c0.1-0.2,0.2-0.4,0.6-0.7
		c0.3-0.3,0.6-0.4,0.7-0.4c0.2,0,0.4,0.1,0.7,0.2c0.2,0.1,0.6,0.2,0.8,0.3c0.2,0.1,0.5,0.2,0.7,0.4c0.2,0.2,0.2,0.2,0.2,0.3v33.4
		c0,2.5,0.4,4.7,1.3,6.5c0.9,1.8,2,3.1,3.5,4.1c1.4,0.9,3.1,1.2,4.9,0.8c1.8-0.3,3.8-1.3,5.8-3.1c0.7,0,0.9,0.2,0.9,0.8
		c-0.1,0.6-0.3,1.2-0.8,2s-1.2,1.6-2.1,2.4c-0.9,0.8-1.9,1.5-3,2c-1.1,0.5-2.2,0.8-3.5,0.8c-1.2,0.1-2.4-0.3-3.6-1.1
		c-0.9-0.6-1.7-1.3-2.5-2.1s-1.4-1.7-2-2.6c-0.6-1-1.1-2-1.6-3s-0.9-2-1.2-3c-0.2,0.4-0.5,1-0.9,1.8c-0.4,0.8-0.9,1.7-1.5,2.7
		c-0.6,1-1.2,2.1-1.7,3.2c-0.6,1.2-1.2,2.2-1.7,3.2c-0.6,1-1.1,2-1.5,2.7c-0.5,0.8-0.8,1.4-1,1.7c-0.7,1.2-1.4,2.1-2.4,2.6
		c-1,0.6-2,0.9-3,0.9s-2-0.3-3-0.9C290.7,276.4,289.9,275.5,289.3,274.4z M292.9,272c0.1,0.2,0.2,0.3,0.3,0.5
		c0.2,0.2,0.4,0.4,0.6,0.6c0.2,0.2,0.5,0.2,0.7,0.3s0.5,0,0.7-0.2c2.2-1.7,4.1-3.7,5.5-6c1.4-2.3,2.6-4.8,3.4-7.4
		c0.9-2.6,1.6-5.3,2.1-8c0.5-2.7,1-5.3,1.4-7.8c-2.5-0.3-4.5-0.2-6.4,0.6c-1.7,0.7-3.2,1.7-4.5,3.2c-1.2,1.4-2.1,3.1-2.8,5
		c-0.7,2-1.2,4.1-1.4,6.2c-0.2,2.1-0.4,4.4-0.3,6.7C292.3,268,292.5,270,292.9,272z"/>
	<path class="st0" d="M336.3,298.2c-1.4-1.4-2.1-3.1-2.2-5.2c-0.1-2.1,0.2-4.3,1.1-6.7c0.7-2.4,1.8-4.9,3.2-7.4
		c1.4-2.5,2.8-5,4.2-7.3c1.5-2.3,2.8-4.5,4.1-6.5c1.2-2,2.1-3.6,2.8-4.9c0.3-0.7,0.4-1.7,0.2-3.1c-0.2-1.3-0.4-2.7-0.7-4.1
		c-0.3-1.4-0.7-2.6-1.1-3.8c-0.4-1.2-0.7-1.8-0.8-2.1l-1.2,1.2l-13.1,22.7c-0.1,0.1-0.2,0.2-0.6,0.5c-0.3,0.2-0.7,0.5-1,0.7
		c-0.3,0.2-0.7,0.5-1.2,0.7c-0.4,0.2-0.7,0.4-0.8,0.5c-1.5,0.6-2.6,0.5-3.2-0.2c-0.7-0.7-1.1-1.9-1.1-3.6c0-1.7,0.2-3.6,0.7-5.9
		s1.2-4.7,2.2-7.3c1-2.6,2.1-5.1,3.5-7.8c1.3-2.6,2.8-5,4.4-7.3c1.6-2.2,3.2-4.1,5-5.7c1.7-1.6,3.5-2.6,5.2-3.2
		c0.9,0.2,1.3,0.7,1.3,1.1c0,0.4-0.2,0.9-0.7,1.4c-0.5,0.5-1.2,1.1-1.9,1.7c-0.8,0.6-1.7,1.2-2.5,1.7s-1.7,1.1-2.3,1.7
		c-0.7,0.5-1.2,0.9-1.4,1.3c-1.1,2.4-2.2,4.7-3.5,6.9c-1.2,2.1-2.2,4.3-3.2,6.4c-0.9,2.1-1.7,4.4-2.1,6.6s-0.6,4.7-0.3,7.4l1.2-1.2
		c1.7-2,3.2-4.3,4.6-6.9c1.4-2.6,2.6-5.2,3.8-7.9c1.2-2.6,2.2-5.1,3.1-7.5c0.9-2.4,1.8-4.4,2.6-6c0.8-1.6,1.7-2.6,2.4-3.2
		c0.7-0.6,1.6-0.2,2.3,0.8c0.7,1.1,1.6,3.1,2.4,6.2s1.7,7.3,2.6,12.7c0.2-0.2,0.7-0.5,1.3-1s1.4-1,2.1-1.5c0.7-0.5,1.5-1,2.1-1.4
		s1.2-0.7,1.4-0.8c0.2-0.1,0.7-0.2,1.2-0.2c0.6,0,1,0.1,1.2,0.2c-0.2,0.8-0.7,1.7-1.6,2.8c-0.8,1.1-1.7,2.1-2.7,3.1
		c-1,1-1.9,1.8-2.7,2.5c-0.8,0.7-1.2,1.1-1.3,1.2c0,0.5,0,1.2,0,2.1c0,0.9-0.1,2-0.2,3.1c-0.1,1.2-0.2,2.4-0.2,3.7
		c-0.1,1.2-0.2,2.5-0.2,3.7c-0.1,1.2-0.2,2.2-0.2,3.1l-0.2,2.1c-0.1,0.6-0.4,1.7-1,3.2c-0.6,1.6-1.3,3.4-2.1,5.3
		c-0.9,2-1.9,4-3.1,5.9c-1.2,2-2.4,3.6-3.6,4.9c-1.2,1.3-2.6,2.1-4.1,2.4C339.1,300.1,337.7,299.6,336.3,298.2z M340,286.4
		c-0.1,0.3-0.1,1-0.1,1.9c0,0.9,0,1.8,0,2.8s0,2,0,2.9c0,0.9,0.1,1.6,0.1,1.8c2.4-1,4.5-2.7,6-5c1.6-2.4,2.8-5,3.6-7.9
		c0.8-2.9,1.3-5.9,1.5-8.8c0.2-3.1,0-5.6-0.4-7.9c-1.3,1.1-2.6,2.5-3.8,4.1c-1.2,1.7-2.2,3.4-3.2,5.2c-1,1.8-1.7,3.7-2.4,5.6
		C340.6,282.9,340.2,284.7,340,286.4z"/>
	<path class="st0" d="M374.6,276.8c-1.9-1.5-3.5-3.3-4.5-5.3c-1.2-2.1-2-4.2-2.6-6.5c-0.2,0.2-0.7,0.5-1.2,0.7
		c-0.6,0.2-1.1,0.5-1.7,0.7c-0.6,0.2-1.2,0.3-1.7,0.4c-0.5,0.1-0.9,0-1.2-0.2c-0.2-0.2-0.3-0.5-0.2-0.9c0.1-0.4,0.5-1.1,1.2-2
		c0.1-0.2,0.4-0.4,0.8-0.9c0.5-0.5,1-0.9,1.6-1.5c0.6-0.5,1.1-1,1.5-1.5c0.5-0.5,0.7-0.8,0.8-0.9c0.5-1.2,0.8-2.4,0.9-3.8
		c0.1-1.4,0.2-2.8,0.2-4.3c0-1.5,0.1-3,0.2-4.5c0.2-1.5,0.5-2.8,1-4.1c0.3-0.7,0.9-1.7,1.8-2.7c0.9-1.1,1.9-2.1,3.1-3.1
		s2.2-1.9,3.5-2.7c1.2-0.8,2.1-1.3,3.1-1.5c0.8-0.2,1.5,0,1.8,0.6c0.4,0.6,0.4,1.7,0,3.5c-0.5,2-1.2,4-2.3,5.9
		c-1,1.9-2.1,3.8-3.2,5.6c-1.2,1.8-2.1,3.7-3.1,5.5c-1,1.8-1.7,3.7-2.1,5.5c-0.2,1-0.3,2.2-0.3,3.6c0,1.4,0.2,2.9,0.5,4.3
		c0.3,1.4,0.8,2.7,1.6,3.9c0.7,1.2,1.7,2,3.1,2.4c1.5,0.6,2.9,0.7,4.4,0.4s2.9-0.8,4.3-1.6s2.7-1.7,4.1-2.9c1.2-1.2,2.5-2.4,3.6-3.6
		s2.1-2.4,3-3.6c0.9-1.2,1.6-2.1,2.2-3l1.2,1.2c0.3,0.2,0.2,1.1-0.6,2.3c-0.7,1.2-1.7,2.7-3.1,4.4s-3,3.3-4.8,5
		c-1.8,1.7-3.7,3.1-5.6,4.2c-2,1.2-3.9,1.8-5.8,2.1C377.9,278.4,376.1,278,374.6,276.8z M372.3,246.9c-0.1,0.2-0.1,0.7-0.1,1.2
		c0,0.6,0,1.2,0,1.8s0,1.2,0,1.8c0,0.6,0.1,0.9,0.1,1.2c1.5-2.5,2.8-5.2,4.1-8c1.2-2.8,2.3-5.7,3.1-8.6c-1.1,0.3-2,0.9-2.8,1.7
		c-0.8,0.7-1.6,1.7-2.1,2.6c-0.6,1-1.1,2-1.4,3.1C372.8,244.9,372.4,245.9,372.3,246.9z"/>
	<path class="st0" d="M416,273.1c-1-1.7-1.8-3.6-2.3-5.7s-0.9-4.3-1.2-6.5c-0.2-2.2-0.3-4.5-0.3-6.7s0.1-4.2,0.2-6
		c-0.7-0.2-1.4-0.2-2.2,0.2s-1.7,0.7-2.6,1.1c-0.9,0.4-1.8,0.9-2.8,1.4c-1,0.5-1.8,0.9-2.6,1.1c-0.8,0.2-1.6,0.2-2.2,0.2
		c-0.7-0.1-1.2-0.6-1.7-1.4c-0.4-0.7-0.4-1.4,0.1-1.8c0.5-0.5,1.2-0.8,2.1-1.1c0.9-0.2,2-0.4,3.2-0.6c1.2-0.1,2.4-0.2,3.5-0.4
		c1.1-0.2,2.1-0.4,2.8-0.7c0.7-0.3,1.2-0.7,1.2-1.3l2.4-26.1c0.1-0.4,0.2-0.7,0.7-1s0.8-0.3,1.2-0.3s0.8,0.1,1.2,0.3
		c0.3,0.2,0.5,0.6,0.5,1v22.6c0.7,0.2,1.2,0.2,1.8,0c0.6-0.2,1.2-0.3,1.8-0.6c0.6-0.2,1.2-0.4,1.7-0.6s1.2-0.2,1.8,0
		c0.2,0.5,0.2,1-0.2,1.4c-0.3,0.4-0.7,0.7-1.1,1l-1.2,0.7c-0.6,0.3-1.2,0.7-1.7,1.1c-0.6,0.4-1.2,0.7-1.8,1.1
		c-0.6,0.3-1,0.5-1.2,0.6c-0.1,0.7-0.1,1.7-0.1,3.3c0,1.6,0,3.2,0,5c0,1.8,0,3.5,0,5s0.1,2.7,0.1,3.3c0.2,2.1,0.6,4.1,1.2,5.9
		c0.7,1.8,1.5,3.1,2.6,4.2c1.1,1,2.4,1.5,4,1.5c1.6,0,3.3-0.7,5.4-2.1c0.3,1.1,0.3,2-0.1,2.8c-0.3,0.8-1,1.5-1.8,2s-1.8,0.8-3,0.9
		c-1.2,0.2-2.3,0.1-3.5-0.2c-1.2-0.2-2.3-0.7-3.4-1.5C417.5,275.3,416.6,274.4,416,273.1z"/>
	<path class="st0" d="M464.9,276.8c-0.9-1.9-1.4-3.9-1.5-5.9s0-4,0.3-6c0.1-0.7,0.2-1.6,0.3-2.9c0.2-1.2,0.4-2.7,0.6-4.2
		c0.2-1.6,0.5-3.2,0.7-5c0.2-1.7,0.5-3.4,0.7-5s0.4-3,0.7-4.1c0.2-1.2,0.3-2.1,0.4-2.7c0.3-1.9,0.7-3.6,1.2-4.9
		c0.4-1.3,1-2.4,1.8-3.1c0.7-0.7,1.7-1.2,3-1.2c1.2-0.1,2.8,0.2,4.7,0.9c0.2,0.1,0.5,0.2,0.7,0.5c0.2,0.3,0.4,0.5,0.5,0.7
		c0.1,0.6,0.2,1.5,0.5,2.7c0.2,1.2,0.5,2.6,0.8,4.2c0.3,1.6,0.7,3.2,1,5c0.3,1.7,0.7,3.4,1,5c0.3,1.6,0.6,3,0.8,4.2s0.4,2.1,0.6,2.7
		c0.7,3.2,1.6,5.5,2.6,6.8c1,1.2,2.1,1.9,3.2,2c1.2,0.1,2.3-0.3,3.6-1.2s2.4-1.7,3.6-2.6c1.2-0.9,2.3-1.7,3.4-2.3
		c1.1-0.7,2-0.7,2.7-0.3c0,0.9-0.2,1.7-0.6,2.6c-0.4,0.8-0.9,1.6-1.5,2.3c-0.6,0.7-1.2,1.3-1.9,2c-0.7,0.6-1.3,1.1-1.9,1.5
		c-2.6,1.7-4.7,2.6-6.4,2.6c-1.7,0.1-3.1-0.3-4.4-1.2c-1.2-0.9-2.1-2.1-2.9-3.6s-1.4-3.1-2-4.6c-0.6-1.6-1.2-3-1.7-4.1
		c-0.5-1.2-1.2-2-1.9-2.3c-0.2,0.6-0.4,1.7-0.8,3.1c-0.4,1.5-0.9,3.1-1.4,4.6c-0.5,1.7-1,3.2-1.4,4.6c-0.5,1.5-0.7,2.5-1,3.1
		c-0.1,0.2-0.2,0.7-0.6,1.3s-0.7,1.3-1.2,2.1s-1,1.5-1.6,2.2c-0.6,0.7-1.2,1.2-1.7,1.7c-0.6,0.4-1.2,0.5-1.8,0.4
		C465.9,278.3,465.4,277.8,464.9,276.8z M468.5,256.5c-0.1,0.6-0.2,1.6-0.2,3.1c0,1.5,0,3.1,0,4.6c0,1.6,0,3.2,0,4.6
		c0,1.5,0.1,2.5,0.2,3.1c1.6-2.4,3.1-5.3,4.3-8.5c1.2-3.2,2.2-6.5,2.9-10c0.7-3.5,0.9-6.9,0.8-10.3c-0.2-3.4-0.8-6.5-2.1-9.3
		c-0.7,1.4-1.5,3.2-2.2,5.4c-0.7,2.1-1.2,4.3-1.8,6.5c-0.5,2.2-0.9,4.3-1.2,6.3C468.9,254,468.6,255.5,468.5,256.5z"/>
	<path class="st0" d="M501.6,276.8c0.1-0.6,0.1-1.7,0.1-3.1v-9.3c0-1.5,0-2.5-0.1-3.1c-0.1-0.2-0.2-0.9-0.2-1.8
		c-0.1-0.9-0.2-2-0.4-3.2s-0.3-2.6-0.5-3.9c-0.2-1.4-0.3-2.6-0.6-3.9c-0.2-1.2-0.3-2.3-0.4-3.2c-0.1-0.9-0.2-1.6-0.2-1.8
		c-0.1-0.7-0.2-1.3-0.1-2c0-0.7,0.2-1.2,0.4-1.8c0.2-0.5,0.6-0.8,1.1-1.1c0.5-0.2,1.2-0.2,2.2,0.2c0.1,1,0.2,2.1,0.2,3.4
		c0.1,1.3,0.2,2.6,0.4,4.1c0.2,1.4,0.4,2.8,0.7,4.2c0.2,1.4,0.6,2.6,1,3.8c0.6-1.7,1.2-3.2,1.7-4.5c0.6-1.3,1.2-2.5,2-3.6
		c0.7-1.1,1.6-2.1,2.5-3.1c0.9-1,2-2,3.3-3.1c1.6-1.3,3-1.9,4.1-1.7s2,1,2.6,2.3c0.7,1.3,1.3,3,1.7,5c0.5,2.1,0.9,4.2,1.2,6.5
		c0.3,2.3,0.7,4.5,1.2,6.8c0.4,2.2,0.9,4.1,1.5,5.8c0.6,1.7,1.3,2.8,2.2,3.6c0.9,0.7,2,0.8,3.4,0.1c0.4,1.2,0.5,2.1,0.2,2.7
		c-0.3,0.6-0.8,0.9-1.5,1c-0.7,0.1-1.6-0.1-2.5-0.6c-1-0.4-1.9-1-2.8-1.8c-0.9-0.7-1.7-1.7-2.5-2.7s-1.2-2.1-1.5-3.4
		c-0.2-0.8-0.3-2.1-0.5-4.1c-0.2-1.9-0.3-3.9-0.6-6c-0.2-2.1-0.7-4.3-1.2-6.4c-0.6-2.1-1.4-3.7-2.4-5l-4.8,4.6c-0.2,0.2-0.5,1-1,2.5
		c-0.5,1.5-1.1,3.1-1.7,5c-0.7,1.9-1.2,3.8-1.8,5.8s-1,3.5-1.3,4.7c-0.1,0.4-0.2,1.2-0.3,2.3c-0.2,1.2-0.2,2.3-0.4,3.6
		c-0.2,1.2-0.2,2.5-0.3,3.6c-0.1,1.2-0.1,1.9-0.1,2.4c-0.4,0.8-1,1.2-1.8,1.2C502.6,278,502,277.6,501.6,276.8z"/>
	<path class="st0" d="M534,274.4c-0.6-1.1-0.9-2.5-1-4.4c-0.1-1.9-0.1-3.9,0.1-6.2c0.2-2.3,0.6-4.6,1.1-7.1c0.5-2.5,1.2-4.8,2-7
		c0.8-2.2,1.7-4.3,2.7-6.1c1-1.8,2.1-3.3,3.4-4.3s2.6-1.6,4-1.5c1.4,0,2.9,0.7,4.4,2.2l2.3-19.2c0.1-0.2,0.2-0.4,0.6-0.7
		s0.6-0.4,0.7-0.4c0.2,0,0.4,0.1,0.7,0.2c0.2,0.1,0.6,0.2,0.8,0.3c0.2,0.1,0.5,0.2,0.7,0.4c0.2,0.2,0.2,0.2,0.2,0.3v33.4
		c0,2.5,0.4,4.7,1.3,6.5c0.9,1.8,2,3.1,3.5,4.1c1.4,0.9,3.1,1.2,4.9,0.8c1.8-0.3,3.8-1.3,5.8-3.1c0.7,0,0.9,0.2,0.9,0.8
		c-0.1,0.6-0.3,1.2-0.8,2s-1.2,1.6-2.1,2.4c-0.9,0.8-1.9,1.5-3,2c-1.1,0.5-2.2,0.8-3.5,0.8c-1.2,0.1-2.4-0.3-3.6-1.1
		c-0.9-0.6-1.7-1.3-2.5-2.1s-1.4-1.7-2-2.6c-0.6-1-1.1-2-1.6-3c-0.5-1-0.9-2-1.2-3c-0.2,0.4-0.5,1-0.9,1.8c-0.4,0.8-0.9,1.7-1.5,2.7
		c-0.6,1-1.2,2.1-1.7,3.2c-0.6,1.2-1.2,2.2-1.7,3.2c-0.6,1-1.1,2-1.5,2.7c-0.5,0.8-0.8,1.4-1,1.7c-0.7,1.2-1.4,2.1-2.4,2.6
		c-1,0.6-2,0.9-3,0.9s-2-0.3-3-0.9C535.4,276.4,534.5,275.5,534,274.4z M537.5,272c0.1,0.2,0.2,0.3,0.3,0.5c0.2,0.2,0.4,0.4,0.6,0.6
		c0.2,0.2,0.5,0.2,0.7,0.3c0.2,0.1,0.5,0,0.7-0.2c2.2-1.7,4.1-3.7,5.5-6s2.6-4.8,3.4-7.4c0.9-2.6,1.6-5.3,2.1-8
		c0.5-2.7,1-5.3,1.4-7.8c-2.5-0.3-4.5-0.2-6.4,0.6c-1.7,0.7-3.2,1.7-4.5,3.2c-1.2,1.4-2.1,3.1-2.8,5c-0.7,2-1.2,4.1-1.4,6.2
		c-0.2,2.1-0.4,4.4-0.3,6.7C536.9,268,537.3,270,537.5,272z"/>
	<path class="st0" d="M275.7,388.6c-0.9-0.6-1.7-1.5-2.2-2.8c-0.6-1.2-1.1-2.6-1.4-4.1c-0.3-1.4-0.7-2.8-0.8-4.2
		c-0.2-1.4-0.2-2.5-0.3-3.3c-0.2-4-0.2-8.1-0.2-12.5c0.1-4.4,0.5-8.7,1.2-13.1c0.7-4.3,1.9-8.5,3.4-12.5c1.6-4,3.6-7.6,6.4-10.9
		c1.4-1.7,2.8-3.2,4.1-4.6c1.3-1.4,2.7-2.6,4.2-3.7c1.5-1.1,3.1-2.1,4.8-2.8c1.7-0.8,3.6-1.4,5.8-1.9c2-0.4,3.5-0.2,4.5,0.6
		s1.7,2.1,2,3.6c0.3,1.7,0.3,3.6,0,5.8s-0.9,4.5-1.7,6.9c-0.7,2.4-1.7,4.6-2.8,6.9c-1.2,2.2-2.3,4.2-3.6,5.9c-1.2,1.7-2.6,3-4,4
		c-1.4,0.9-2.7,1.2-4,0.9c-0.2-0.3,0-1.1,0.6-2.2c0.6-1.2,1.4-2.6,2.4-4.4c1-1.7,2.1-3.6,3.2-5.8c1.2-2.1,2.2-4.3,3.1-6.4
		c0.9-2.2,1.7-4.4,2.2-6.4c0.5-2.1,0.7-4,0.4-5.6c-0.2-0.7-0.6-1.2-1.2-1.3c-0.7-0.2-1.4-0.1-2.2,0.1s-1.6,0.4-2.3,0.7
		c-0.7,0.2-1.2,0.5-1.4,0.6c-3.5,1.5-6.4,3.7-9,6.5c-2.6,2.9-4.7,6.1-6.4,9.8c-1.7,3.7-3.1,7.6-4.1,11.7c-1,4.1-1.7,8.3-2.1,12.3
		s-0.6,7.9-0.5,11.6c0.1,3.7,0.4,6.9,0.9,9.5c0.5,2.6,1.2,4.7,1.9,6.1c0.7,1.4,1.7,1.9,2.6,1.4c0.1-0.1,0.2-0.2,0.6-0.6
		c0.3-0.3,0.5-0.6,0.6-0.7c0.7-1.9,1.2-4.1,1.6-6.3c0.4-2.3,0.7-4.6,0.9-7.1c0.2-2.5,0.3-5,0.4-7.4s0.1-5,0-7.3s-0.2-4.5-0.2-6.7
		c-0.1-2.1-0.2-4-0.3-5.5c-0.2-0.3-0.2-0.9-0.3-1.8c-0.1-0.9-0.1-1.8-0.2-2.8c0-1,0-2,0.1-3s0.2-1.7,0.4-2.2
		c0.2-0.5,0.5-0.7,0.9-0.6c0.3,0.2,0.8,0.8,1.4,2c0.1,0.6,0.2,1.7,0.3,3.1c0.1,1.5,0.2,3.1,0.4,4.7c0.2,1.7,0.2,3.2,0.3,4.7
		c0.1,1.5,0.2,2.5,0.2,3.1c0.1,0.7,0.1,1.5,0.1,2.6c0,1.2,0,2.3,0,3.6v7.9c0,1.2,0,2.2,0,3.1s-0.1,1.5-0.1,1.7
		c0,0.4-0.1,1.2-0.3,2.4c-0.2,1.2-0.4,2.5-0.7,3.9s-0.5,2.7-0.7,4.1c-0.2,1.2-0.5,2.2-0.6,2.7c-0.2,1-0.7,2-1.2,3s-1.1,1.8-1.8,2.6
		c-0.7,0.7-1.5,1.1-2.4,1.2C277.7,389.5,276.7,389.2,275.7,388.6z"/>
	<path class="st0" d="M315.8,353.3c-0.7,1.5-1.3,2.3-1.8,2.3s-0.9-0.5-1.2-1.5c-0.3-1-0.6-2.5-0.8-4.4c-0.2-1.9-0.3-4-0.4-6.3
		c-0.1-2.3-0.1-4.7,0-7.2c0.1-2.5,0.2-5,0.2-7.3c0.1-2.3,0.2-4.5,0.4-6.4c0.2-2,0.4-3.5,0.6-4.6c0.2-1.2,0.4-1.7,0.7-1.8
		s0.5,0.5,0.7,1.8c1.5-1.1,3.1-2.1,4.7-3.1c1.7-1,3.5-1.8,5.3-2.5c1.8-0.7,3.6-1.1,5.5-1.2c1.8-0.2,3.6,0,5.4,0.5
		c0.2,0.6,0.2,1.2,0.1,2.1c-0.2,0.7-0.6,1.2-1.3,1.5c-0.7-0.2-1.7-0.2-2.9-0.2c-1.2,0-2.5,0.1-3.8,0.2c-1.3,0.2-2.6,0.5-4,0.9
		s-2.6,0.9-3.6,1.7c-1.1,0.7-2,1.5-2.6,2.4c-0.7,0.9-1,2.1-1,3.3L315.8,353.3L315.8,353.3z"/>
	<path class="st0" d="M352.3,352.8c-1.9-1.5-3.5-3.3-4.5-5.3c-1.2-2.1-2-4.2-2.6-6.5c-0.2,0.2-0.7,0.5-1.2,0.7
		c-0.6,0.2-1.1,0.5-1.7,0.7c-0.6,0.2-1.2,0.3-1.7,0.4c-0.6,0.1-0.9,0-1.2-0.2c-0.2-0.2-0.3-0.5-0.2-0.9c0.1-0.4,0.5-1.1,1.2-2
		c0.1-0.2,0.4-0.4,0.8-0.9c0.5-0.5,1-0.9,1.6-1.5c0.6-0.5,1.1-1,1.5-1.5c0.5-0.5,0.7-0.8,0.8-0.9c0.5-1.2,0.8-2.4,0.9-3.8
		c0.1-1.4,0.2-2.8,0.2-4.3c0-1.5,0.1-3,0.2-4.5c0.2-1.5,0.5-2.8,1-4.1c0.3-0.7,0.9-1.7,1.8-2.7s1.9-2.1,3.1-3.1
		c1.2-1,2.2-1.9,3.5-2.7c1.2-0.8,2.1-1.3,3.1-1.5c0.8-0.2,1.5,0,1.8,0.6c0.4,0.6,0.4,1.7,0,3.5c-0.5,2-1.2,4-2.3,5.9
		c-1,1.9-2.1,3.8-3.2,5.6c-1.1,1.8-2.1,3.7-3.1,5.5c-1,1.8-1.7,3.7-2.1,5.5c-0.2,1-0.3,2.2-0.3,3.6s0.2,2.9,0.5,4.3
		c0.3,1.4,0.8,2.7,1.6,3.9s1.7,2,3.1,2.4c1.5,0.6,2.9,0.7,4.4,0.4c1.5-0.2,2.9-0.8,4.3-1.6c1.4-0.7,2.7-1.7,4.1-2.9
		c1.2-1.2,2.5-2.4,3.6-3.6c1.1-1.2,2.1-2.4,3-3.6c0.9-1.2,1.6-2.1,2.2-3l1.2,1.2c0.3,0.2,0.2,1.1-0.6,2.3c-0.7,1.2-1.7,2.7-3.1,4.4
		c-1.3,1.7-3,3.3-4.8,5c-1.8,1.7-3.7,3.1-5.6,4.2c-2,1.2-3.9,1.8-5.8,2.1C355.5,354.5,353.8,354.1,352.3,352.8z M350,323
		c-0.1,0.2-0.1,0.7-0.1,1.2c0,0.6,0,1.2,0,1.8s0,1.2,0,1.8s0.1,0.9,0.1,1.2c1.5-2.5,2.8-5.2,4.1-8c1.2-2.8,2.3-5.7,3.1-8.6
		c-1.1,0.3-2,0.9-2.8,1.7s-1.6,1.7-2.1,2.6c-0.6,1-1.1,2-1.4,3.1C350.5,321,350.1,321.9,350,323z"/>
	<path class="st0" d="M396,352.8c0.1-1.8,0.2-3.8,0.2-5.8c0-2.1,0-4.1-0.1-6.1c-0.1-2.1-0.2-4.1-0.4-6.1c-0.2-2.1-0.5-4-0.8-5.8
		c-0.7-3.3-1.5-5.9-2.4-7.7c-1-1.7-2-2.7-3.1-2.8c-1.1-0.1-2.1,0.6-3.1,2.1c-0.9,1.6-1.7,3.9-2.1,7.2c-0.1,0.5-0.2,1.2-0.3,2.3
		c-0.2,1.1-0.2,2.2-0.4,3.6c-0.2,1.3-0.3,2.7-0.5,4.2c-0.2,1.5-0.3,2.9-0.5,4.2c-0.2,1.3-0.2,2.5-0.4,3.6c-0.1,1.1-0.2,1.8-0.2,2.3
		c-0.2,0.7-0.8,1.2-1.6,1.3s-1.5,0.1-2.1-0.2l-2.3-35.7c-0.1-0.6,0.1-1.1,0.4-1.6c0.3-0.4,0.7-0.7,1.1-0.9c0.4-0.2,0.8-0.2,1.2,0
		c0.4,0.2,0.7,0.6,0.8,1.2l2.4,10.7c1.4-3.5,2.7-5.9,4-7.3c1.2-1.4,2.3-2.1,3.4-2.2c1.1-0.1,2.1,0.5,3.1,1.5c1,1.1,1.9,2.3,2.7,3.8
		c0.8,1.5,1.7,3.1,2.4,4.7c0.7,1.7,1.6,3.1,2.3,4.3c1.9-6.4,4.1-11.1,6.4-14c2.4-2.9,4.7-4.1,6.9-3.6c2.2,0.5,4.1,2.6,5.9,6.4
		c1.7,3.8,2.8,9.1,3.4,15.9c0.1,1.1,0.2,2.4,0.2,4.1c0.1,1.7,0.1,3.4,0.1,5c0,1.7,0,3.1-0.1,4.3s-0.1,1.9-0.2,2l-1.2,1.2l-2.4-2.3
		c0.2-2.4,0.3-4.9,0.2-7.4c-0.1-2.6-0.3-5.2-0.7-7.8c-0.4-2.6-0.8-5.1-1.4-7.6c-0.6-2.5-1.1-4.8-1.7-6.9c-0.7-1.8-1.4-2.9-2.3-3.2
		c-0.9-0.3-1.8-0.2-2.8,0.5c-0.9,0.6-1.8,1.6-2.6,2.7c-0.7,1.2-1.4,2.4-1.8,3.6c-0.2,0.7-0.6,1.6-1,2.7c-0.4,1.2-0.7,2.3-1.2,3.5
		c-0.3,1.2-0.7,2.1-1,3.1c-0.2,0.9-0.4,1.4-0.5,1.5c-0.2,0.8-0.4,2.2-0.7,4.2c-0.2,2-0.5,4.1-0.7,6.4c-0.2,2.3-0.5,4.5-0.7,6.4
		c-0.2,2.1-0.3,3.5-0.3,4.3c0,0.7-0.2,1.1-0.6,1.2c-0.3,0.1-0.7,0.1-1.2-0.2C397.3,353.7,396.7,353.3,396,352.8z"/>
	<path class="st0" d="M425.2,299.2c0-1.3,0.5-2.1,1.6-2.6s2.1-0.3,3.2,0.2v3.6c-0.2,0.1-0.4,0.1-0.7,0.1s-0.7,0-1.1,0
		c-0.4,0-0.7,0-1.1,0c-0.3,0-0.6-0.1-0.7-0.1c-0.2-0.1-0.4-0.2-0.7-0.6C425.3,299.5,425.2,299.3,425.2,299.2z M427.6,350.4
		c-0.1-0.2-0.2-0.5-0.3-1.1c-0.2-0.5-0.2-1.1-0.4-1.7c-0.2-0.7-0.2-1.2-0.3-1.8c-0.1-0.6-0.2-1-0.2-1.3v-33.3c0-0.5,0.2-0.7,0.6-1
		c0.4-0.2,0.9-0.2,1.4-0.3c0.5,0,1,0,1.4,0c0.4,0.1,0.7,0.1,0.7,0.1v37c0,0.7,0.2,1.4,0.7,1.9c0.5,0.5,1.1,0.9,1.8,1.2
		c0.7,0.3,1.4,0.5,2.1,0.6s1.3,0,1.8-0.1c0.7,1,0.7,1.7,0,2.3c-0.7,0.6-1.6,0.9-2.8,1c-1.2,0.1-2.5-0.2-3.8-0.7
		C429.1,352.5,428.2,351.6,427.6,350.4z"/>
	<path class="st0" d="M442.5,350.4c-0.1-0.2-0.2-0.5-0.3-0.9c-0.2-0.4-0.2-0.9-0.4-1.4c-0.1-0.5-0.2-1-0.3-1.5
		c-0.1-0.5-0.2-0.7-0.2-1v-26.2c0-0.4,0.2-0.7,0.5-0.9c0.3-0.2,0.7-0.3,1.1-0.3c0.4-0.1,0.8-0.1,1.2,0c0.4,0.1,0.7,0.1,0.8,0.2
		c-0.1,0.6-0.1,1.5-0.1,2.7s0,2.6,0,4.2c0,1.6,0,3.2,0,5s0,3.4,0,5v4.2c0,1.2,0,2.1,0.1,2.7c0.1,2.6,0.4,4.4,1.1,5.4
		c0.6,1,1.4,1.5,2.2,1.4c0.9-0.1,1.8-0.6,2.8-1.5c1-0.9,1.9-2.1,2.7-3.4c0.8-1.3,1.6-2.6,2.1-4.1c0.6-1.4,0.8-2.6,0.8-3.8v-17.9h4.8
		c-0.1,1.1-0.2,2.4-0.3,4.1c-0.2,1.7-0.2,3.6-0.2,5.5c0,2,0,4,0.1,6c0.1,2.1,0.3,4,0.7,5.8c0.3,1.8,0.8,3.4,1.5,4.7
		c0.7,1.3,1.5,2.3,2.5,2.9c1,0.6,2.3,0.7,3.7,0.2c1.5-0.4,3.2-1.4,5.2-3.1c0.4,1.2,0.2,2.3-0.5,3.5c-0.7,1.1-1.7,2.1-2.9,2.9
		c-1.2,0.8-2.5,1.4-3.8,1.8c-1.4,0.4-2.6,0.5-3.5,0.2c-0.2-0.1-0.3-0.2-0.7-0.6c-0.3-0.3-0.5-0.6-0.6-0.7c-0.2-0.3-0.5-0.9-1-1.8
		c-0.5-0.9-0.9-1.8-1.4-2.8c-0.5-1-1-2-1.4-2.9c-0.4-0.9-0.7-1.6-0.9-1.9c-0.2,0.5-0.7,1.2-1.4,2.3c-0.7,1-1.4,2.1-2.3,3.3
		c-0.9,1.2-1.8,2.2-2.9,3.3c-1,1-2.1,1.7-3.1,2.2c-1.1,0.4-2.1,0.5-3.1,0.2C444.3,353,443.3,352,442.5,350.4z"/>
	<path class="st0" d="M491.8,352.8c0.1-1.8,0.2-3.8,0.2-5.8c0-2.1,0-4.1-0.1-6.1c-0.1-2.1-0.2-4.1-0.4-6.1c-0.2-2.1-0.5-4-0.8-5.8
		c-0.7-3.3-1.5-5.9-2.4-7.7c-1-1.7-2-2.7-3.1-2.8c-1.1-0.1-2.1,0.6-3.1,2.1c-0.9,1.6-1.7,3.9-2.1,7.2c-0.1,0.5-0.2,1.2-0.3,2.3
		s-0.2,2.2-0.4,3.6c-0.2,1.3-0.3,2.7-0.5,4.2c-0.2,1.5-0.3,2.9-0.5,4.2c-0.2,1.3-0.2,2.5-0.4,3.6c-0.1,1.1-0.2,1.8-0.2,2.3
		c-0.2,0.7-0.8,1.2-1.6,1.3s-1.5,0.1-2.1-0.2l-2.3-35.7c-0.1-0.6,0.1-1.1,0.4-1.6c0.3-0.4,0.7-0.7,1.1-0.9s0.8-0.2,1.2,0
		c0.4,0.2,0.7,0.6,0.8,1.2l2.4,10.7c1.4-3.5,2.7-5.9,4-7.3c1.2-1.4,2.3-2.1,3.4-2.2c1.1-0.1,2.1,0.5,3.1,1.5c1,1.1,1.9,2.3,2.7,3.8
		c0.8,1.5,1.7,3.1,2.4,4.7s1.6,3.1,2.3,4.3c1.9-6.4,4.1-11.1,6.4-14c2.4-2.9,4.7-4.1,6.9-3.6c2.2,0.5,4.1,2.6,5.9,6.4
		c1.7,3.8,2.8,9.1,3.4,15.9c0.1,1.1,0.2,2.4,0.2,4.1c0.1,1.7,0.1,3.4,0.1,5c0,1.7,0,3.1-0.1,4.3c-0.1,1.2-0.1,1.9-0.2,2l-1.2,1.2
		l-2.4-2.3c0.2-2.4,0.3-4.9,0.2-7.4c-0.1-2.6-0.3-5.2-0.7-7.8c-0.4-2.6-0.8-5.1-1.4-7.6c-0.6-2.5-1.1-4.8-1.7-6.9
		c-0.7-1.8-1.4-2.9-2.3-3.2c-0.9-0.3-1.8-0.2-2.8,0.5c-0.9,0.6-1.8,1.6-2.6,2.7c-0.7,1.2-1.4,2.4-1.8,3.6c-0.2,0.7-0.6,1.6-1,2.7
		c-0.4,1.2-0.7,2.3-1.2,3.5c-0.3,1.2-0.7,2.1-1,3.1c-0.2,0.9-0.4,1.4-0.5,1.5c-0.2,0.8-0.4,2.2-0.7,4.2c-0.2,2-0.5,4.1-0.7,6.4
		c-0.2,2.3-0.5,4.5-0.7,6.4c-0.2,2.1-0.3,3.5-0.3,4.3c0,0.7-0.2,1.1-0.6,1.2c-0.3,0.1-0.7,0.1-1.2-0.2
		C493,353.7,492.5,353.3,491.8,352.8z"/>
	<path class="st0" d="M342.6,391.9c0-1.7,0.3-3.2,1-4.6c0.7-1.3,1.6-2.4,2.8-3.2c1.2-0.7,2.6-1.2,4.1-1.2c1.5,0,2.8,0.3,4.1,1.1
		c1.2,0.7,2.1,1.8,2.8,3.1c0.7,1.3,1,2.9,1,4.5v0.8c0,1.7-0.3,3.2-1,4.6c-0.7,1.3-1.6,2.4-2.8,3.1c-1.2,0.7-2.6,1.2-4.1,1.2
		c-1.5,0-2.9-0.4-4.1-1.2c-1.2-0.7-2.1-1.8-2.8-3.1c-0.7-1.3-1-2.9-1-4.5V391.9z M343.5,392.5c0,1.5,0.3,2.9,0.9,4.1
		c0.6,1.2,1.4,2.2,2.5,2.9c1.1,0.7,2.2,1.1,3.6,1.1c2.1,0,3.7-0.7,5-2.3c1.3-1.6,1.9-3.5,1.9-6v-0.5c0-1.5-0.3-2.8-0.9-4.1
		c-0.6-1.2-1.4-2.2-2.5-2.9c-1.1-0.7-2.2-1.1-3.6-1.1c-2.1,0-3.7,0.7-5,2.3c-1.3,1.6-1.9,3.6-1.9,5.9L343.5,392.5L343.5,392.5z"/>
	<path class="st0" d="M376.4,392.4c0,2.8-0.6,5-1.8,6.6c-1.2,1.7-2.8,2.5-4.9,2.5c-1.3,0-2.6-0.2-3.6-0.8c-1.1-0.6-1.9-1.3-2.5-2.3
		v9.7h-0.9v-24.8h0.9v3.2c0.6-1.2,1.5-2,2.5-2.6c1.1-0.6,2.2-0.9,3.6-0.9c2.1,0,3.7,0.8,5,2.4c1.2,1.6,1.8,3.9,1.8,6.8V392.4z
		 M375.5,392c0-2.6-0.5-4.5-1.6-6c-1.1-1.5-2.5-2.1-4.3-2.1c-1.5,0-2.8,0.4-3.8,1.2c-1.1,0.7-1.8,1.9-2.2,3.4v8.4
		c0.5,1.2,1.2,2.2,2.3,2.9c1.1,0.7,2.3,1,3.9,1c1.8,0,3.2-0.7,4.3-2.1S375.5,394.9,375.5,392z"/>
	<path class="st0" d="M383.2,378.4v4.8h4.1v0.9h-4.1v12.7c0,1.2,0.2,2.2,0.7,2.8s1.1,0.9,2.1,0.9c0.5,0,1.1-0.1,1.7-0.2l0.2,0.8
		c-0.3,0.2-1,0.2-1.9,0.2c-1.3,0-2.2-0.3-2.8-1.1s-0.8-1.9-0.8-3.4v-12.8H379v-0.9h3.3v-4.8H383.2z"/>
	<path class="st0" d="M391.7,377.7c0-0.2,0.1-0.5,0.2-0.7c0.2-0.2,0.4-0.2,0.7-0.2s0.5,0.1,0.7,0.2c0.2,0.2,0.2,0.4,0.2,0.7
		s-0.1,0.5-0.2,0.7c-0.2,0.2-0.4,0.2-0.7,0.2s-0.5-0.1-0.7-0.2C391.7,378.1,391.7,377.9,391.7,377.7z M393.1,401.1h-0.9v-17.9h0.9
		V401.1z"/>
	<path class="st0" d="M397.5,391.9c0-1.7,0.3-3.2,1-4.6c0.7-1.3,1.6-2.4,2.8-3.2c1.2-0.7,2.6-1.2,4.1-1.2c1.5,0,2.8,0.3,4.1,1.1
		c1.2,0.7,2.1,1.8,2.8,3.1c0.7,1.3,1,2.9,1,4.5v0.8c0,1.7-0.3,3.2-1,4.6c-0.7,1.3-1.6,2.4-2.8,3.1c-1.2,0.7-2.6,1.2-4.1,1.2
		c-1.5,0-2.9-0.4-4.1-1.2c-1.2-0.7-2.1-1.8-2.8-3.1c-0.7-1.3-1-2.9-1-4.5V391.9z M398.4,392.5c0,1.5,0.3,2.9,0.9,4.1
		c0.6,1.2,1.4,2.2,2.5,2.9s2.2,1.1,3.6,1.1c2.1,0,3.7-0.7,5-2.3c1.3-1.6,1.9-3.5,1.9-6v-0.5c0-1.5-0.3-2.8-0.9-4.1
		c-0.6-1.2-1.4-2.2-2.5-2.9s-2.2-1.1-3.6-1.1c-2.1,0-3.7,0.7-5,2.3c-1.3,1.6-1.9,3.6-1.9,5.9L398.4,392.5L398.4,392.5z"/>
	<path class="st0" d="M418.5,387.4c0.6-1.4,1.4-2.5,2.6-3.3c1.2-0.8,2.4-1.2,3.8-1.2c1.9,0,3.3,0.6,4.3,1.7c0.9,1.1,1.4,2.7,1.4,5
		v11.7h-0.9v-11.7c0-1.9-0.4-3.3-1.2-4.3c-0.7-0.9-2-1.4-3.6-1.4c-1.6,0-2.9,0.6-4.1,1.7c-1.2,1.1-1.9,2.5-2.3,4.2v11.5h-0.9v-17.9
		h0.9L418.5,387.4L418.5,387.4z"/>
	<path class="st0" d="M447.1,396.8c0-2.1-1.8-3.6-5.5-4.5c-2.2-0.5-3.8-1.1-4.6-1.8c-0.9-0.7-1.3-1.7-1.3-3.1c0-1.3,0.6-2.4,1.7-3.2
		s2.6-1.2,4.3-1.2c1.9,0,3.5,0.5,4.6,1.4c1.2,0.9,1.7,2.1,1.7,3.7h-0.9c0-1.2-0.5-2.2-1.5-3c-1-0.8-2.3-1.2-4-1.2
		c-1.6,0-2.8,0.3-3.7,1c-0.9,0.7-1.4,1.6-1.4,2.6c0,0.8,0.2,1.4,0.5,1.9c0.3,0.5,0.9,0.9,1.7,1.2c0.7,0.3,1.9,0.7,3.4,1.1
		c1.5,0.3,2.6,0.7,3.5,1.2c0.8,0.5,1.5,1,1.9,1.7c0.4,0.7,0.6,1.4,0.6,2.3c0,1.4-0.6,2.6-1.7,3.4c-1.2,0.8-2.6,1.3-4.5,1.3
		c-2,0-3.6-0.5-4.9-1.4c-1.2-0.9-1.8-2.1-1.8-3.6h0.9c0.1,1.2,0.7,2.2,1.7,3c1,0.7,2.4,1.1,4.1,1.1c1.6,0,2.9-0.4,3.9-1.2
		C446.7,398.7,447.1,397.8,447.1,396.8z"/>
</g>
<line class="st2" x1="-562.2" y1="327.9" x2="-487" y2="327.9"/>
<line class="st2" x1="-117.5" y1="328" x2="-42.2" y2="328"/>
</svg>
